<?xml version="1.0" encoding="UTF-8"?>
<!DOCTYPE svg PUBLIC "-//W3C//DTD SVG 1.1//EN" "http://www.w3.org/Graphics/SVG/1.1/DTD/svg11.dtd">
<!-- Creator: CorelDRAW -->
<svg xmlns="http://www.w3.org/2000/svg" xml:space="preserve" width="131.832mm" height="131.233mm" version="1.1" style="shape-rendering:geometricPrecision; text-rendering:geometricPrecision; image-rendering:optimizeQuality; fill-rule:evenodd; clip-rule:evenodd"
viewBox="0 0 13168.98 13109.15"
 xmlns:xlink="http://www.w3.org/1999/xlink"
 xmlns:xodm="http://www.corel.com/coreldraw/odm/2003">
 <defs>
  <style type="text/css">
   <![CDATA[
    .str0 {stroke:#090506;stroke-width:7.61;stroke-miterlimit:22.9256}
    .fil0 {fill:#090506}
    .fil3 {fill:#3B1722}
    .fil5 {fill:#C9859C}
    .fil4 {fill:#DBB36D}
    .fil2 {fill:#EC6C99}
    .fil1 {fill:#FDFDFD}
   ]]>
  </style>
 </defs>
 <g id="Layer_x0020_1">
  <metadata id="CorelCorpID_0Corel-Layer"/>
  <g id="_2252504440672">
   <path class="fil0" d="M4575.61 8186.6c102.86,226.77 17.88,494.66 138.78,985.19 36.28,147.2 37.34,326.11 -118.6,364.13 -317.42,77.4 -869.36,-368.13 -707.63,-910.68 86.31,-289.56 350.81,-487.48 687.46,-438.64zm2178.86 -1277.87c221.01,-61.83 594.93,-79.01 847.25,-21.25 1670.62,382.43 1741.24,3112.28 -80.72,3471.33 -1546.89,304.83 -2690.76,-1443.49 -1796.28,-2750.26 258.43,-377.53 544.55,-564.08 1029.75,-699.82zm2760.12 578.45c885.02,-126.98 774.83,1078.18 192.1,1034.03 -68.45,-239.62 -213.27,-796.7 -192.1,-1034.03zm-826.41 -990.22c191.67,-193.7 419.08,-175.24 466.01,-565.68 58.97,-490.64 -113.27,-446.82 286.2,-704.85 216,-139.52 373.71,-256.67 649.19,-344.09 1529.05,-485.15 2288.09,875.01 2290.36,2565.42 1.24,915.23 -203.09,1730.16 -748.44,2258.94 -638.27,618.86 -1669.78,613.99 -2209.16,230.17 -13.97,-189.52 125.54,-552.38 210.95,-641.82 54.88,-57.47 422.5,-245.2 532.24,-315.67 1061.77,-681.78 635.07,-1835.35 -128.66,-2096.05 -579.48,-197.81 -1322.82,137.13 -1348.69,-386.37zm-3698.5 -654.11c1100.85,-197.36 1164.64,788.03 703.42,994.09 -267.05,119.31 -286.6,-61.3 -580.98,160.12 -834.59,627.71 -1332.57,-937.28 -122.44,-1154.21zm-902.88 1718.63c-1403.74,409.93 -1078.33,2501.08 240.77,2636.74 340.05,34.97 995.11,-209.26 992.98,313.36 -1.18,287.68 -1051.14,1981.91 -2278.87,1745.37 -754.44,-145.35 -1156.59,-630.47 -1484.88,-1229.98 -279.35,-510.14 -632.41,-1419.2 -695.52,-2002.11 -85.89,-793.24 -80.79,-1726.45 346.63,-2265.98 407.55,-514.42 889.99,-577.81 1499.96,-561.8 527.29,13.84 264.53,71 256.94,295.91 315.29,22.91 155.51,-213.42 503.35,-165.5 143.61,19.78 414.87,108.25 508.16,169.48 153.61,165.39 -39.26,577.52 568.19,837.96 138.28,59.29 49.93,-42.8 105.96,77.63l-563.65 148.93zm3853.6 -2395.34c408.97,-117.44 833.47,102.99 958.79,389.31 113.39,259.08 18.84,832.18 -598.14,695.43 -290.49,-64.38 -385.24,99.6 -694.13,46.17 -306.03,-52.95 -528.94,-528.95 -153.63,-903.56 158.85,-158.55 270.15,-165.04 487.11,-227.34zm-4926.07 -2429.02c-232.62,-13.92 -223.8,84.06 -323.36,-235.55 -55.1,-176.9 -74.92,-341.41 -61.69,-549.5 64.12,-1009.13 1171.13,-180.25 1744.74,-407.87 172.27,-68.37 708.73,-294.7 919.72,-241.99 27.65,487.8 -11.65,801.76 323.21,1019.33 411.5,267.36 857.08,-82.66 1038.94,-123.33 185.22,123.36 241.22,234.85 564.58,250.46 377.77,18.23 242.78,151.8 519.15,292.3 631.14,320.86 836.23,-217.18 1102.34,-308.8 166.8,95.37 300.51,424.24 303.28,578.49 -209.34,183.9 -306.19,71.68 -385.9,302.96l435.21 -19.73c64.68,118.14 81.01,264.43 58.32,411.87 -60.26,40.42 -158.43,50.96 -220.67,150.05 47.27,90.36 6.94,32.21 85.97,82.5 7.9,5.03 88.38,29.97 95.89,32.91 5.16,523.98 -116.99,423.62 -358.58,518.46 -5.07,205.18 15,29.39 78.06,163.74 40.76,86.85 53.34,44.24 6.88,170.82 -31.53,85.92 -142.66,208.87 -227.48,205.48 -271.34,-10.87 -115.18,-125 -789.48,-57.58 -970.11,97.01 -784.83,708.93 -909.93,926.61 -81.38,141.61 -758.15,199.29 -871.46,189.39 -127.81,-169.35 -158.9,-295.71 -391.68,-413.59 -942.97,-477.5 -1531.62,600.29 -1787.04,240.28 -76.71,-108.1 45.18,-141.8 31.13,-316.36 -190.4,-9.72 -117.72,95.09 -370.86,110.33 -138.2,-47.27 -272.31,-168.44 -307.69,-303.52 119.85,-102.46 159.81,-60.51 207.34,-218.24l-391.47 0.88c-75.71,-127.8 -156.21,-229.59 -148.16,-423.24 143.33,-57.47 239.7,-20.52 355.8,-134.12 -107.19,-137.18 -242.63,-85.61 -463.85,-102.33 -206.02,-1140.05 206.62,-1454.93 138.76,-1791.12zm4875.58 -682.98c-2.33,-83.02 -14.75,-62.32 12.26,-151.75 30.6,-101.29 33.49,-68.53 58.31,-104.27 247.22,38.69 162.4,265.5 -70.56,256.01zm-780.45 -786.16c677.99,-197.59 838.94,796.35 240.61,961.52 -616.57,170.21 -920.07,-763.5 -240.61,-961.52zm1024.78 858.55c162.4,-115.06 140.46,-374.66 -31.12,-487.72 -4.84,-3.19 -466.5,-238.03 -81.01,-397.08 699.84,-288.77 1120.48,370.54 541.92,1104.3 -380.58,482.69 -870.65,239.26 -918.43,30.8 135.07,-192.64 329.5,-137.55 488.63,-250.29zm-1582.12 -533.81c-29.32,133.39 -108.44,85.49 -188.59,115.02l89.01 87.53c5.6,-8.15 17.77,21.68 26.86,32.35 27.65,126.09 114.71,194.67 -226.14,322.06 -707.42,264.42 -818.78,-377.3 -667.86,-1038.97 274.75,-1204.48 1174.67,-441.68 1302.87,-38.54 -83.83,175.03 -8,26.76 -138.05,125.26 -5.82,4.42 -45.24,56.15 -56.37,93.3 -49.24,164.25 -46.09,205.26 -141.75,301.99zm467.59 -800.57c217.35,-377.29 1355,-965.9 1351.01,105.65 -107.61,77.32 -671.22,248.46 -748.73,234.02 -396.56,-73.86 -520.45,-110.2 -602.28,-339.66zm3111.08 2148.12c-136.07,-101.31 -179.01,-50.13 -515.89,-30.26 -260.45,15.36 -241.28,-35.76 -313.49,-221.09 -211.01,-541.59 -314.31,-349.71 -286.16,-733.23 69.86,-951.7 -201.75,-616.94 -377.97,-1169.11 -311,-974.49 -673.57,-919.98 -1431.02,-499.77 -438.73,243.4 -232.21,281.94 -687.04,43.17 -844.47,-443.31 -1049.36,562.05 -1218.55,654.46 -44.53,24.32 -337.76,80.99 -417.47,102.19 -837.06,222.63 -428.72,325.32 -1205.09,154.14 -252.05,-55.57 -751.68,-75.14 -957.09,19.9 -461.19,213.35 -373.47,1123.58 -195.74,1581.95 64.4,166.08 151.63,191.3 133.27,366.74 -11.62,111.01 -72.82,280.41 -90.18,402.01 -45.68,320.03 43.07,747.01 -13.88,1019.2 -205.19,103.1 -541.89,76.54 -597.19,316.94 176.08,118.39 402.75,-79.57 714.32,-72.26 48.65,68.75 201.44,336.61 194.8,440.18 -958.65,59.43 -1225.55,-15.63 -1912.28,452 -417.5,284.29 -793.62,817.02 -882.53,1482.65 -213.37,1597.7 64.55,2776.82 641.45,3955.21 467.11,954.13 1526.99,2053.25 2746.04,1887.05 967.83,-131.96 1585.75,-668.86 2128.68,-1392.86 160.6,-214.17 321.31,-549.21 468.71,-703.09 391.92,41.12 599.1,137.36 1093.03,132.18 1281.36,-13.45 1233.88,-675.79 2923.36,-222.23 796.9,213.94 1327.7,27.99 1852.66,-379.19 569.53,-441.75 661.37,-621.48 969.24,-1359.13 222.57,-533.28 322.28,-1389.85 251.95,-2046.54 -116.54,-1088.15 -199.45,-1740.21 -999.02,-2516.09 -251.79,-244.34 -415.7,-310.36 -701.93,-464.36 -419.98,-225.96 -1057.15,-257.2 -1543.54,-136.55 -153.26,38.01 -287.82,120.91 -417.69,128.48 3.3,-360.9 369.76,-176.67 638.65,-295.74 -35.05,-99.98 -6.08,-66.95 -86.89,-117.38 -80.28,-50.12 -305.42,-10.95 -489.17,-48.08 -72.72,-142.37 -81.45,-293.08 -56.9,-485 174.47,-61.41 528.72,-67.18 640.58,-246.5z"/>
   <path class="fil1" d="M6566.95 5038.12c-77.84,81.01 -398.05,140.12 -569.98,74.38 -372.31,-142.37 -17.26,-728.88 460.53,-531.88 266.63,109.93 145.17,420.32 109.45,457.51zm-2397.88 -603.99c147.26,-100.7 103.76,-96.37 316.95,-89.39 275.61,345.4 216.17,650.14 -171.12,642.77 -152.12,-190.9 -201.01,-196.93 -145.82,-553.38zm3744.28 -170.12c-512.26,79.21 -456.03,-475.9 -296.75,-577.51 305.81,-195.09 509.76,254.24 296.75,577.51zm-4899.01 -1526.89c67.86,336.2 -344.78,651.08 -138.76,1791.12 221.22,16.72 356.65,-34.85 463.85,102.33 -116.09,113.61 -212.46,76.66 -355.8,134.12 -8.05,193.65 72.45,295.44 148.16,423.24l391.47 -0.88c-47.53,157.73 -87.49,115.78 -207.34,218.24 35.38,135.08 169.49,256.25 307.69,303.52 253.14,-15.24 180.45,-120.05 370.86,-110.33 14.05,174.56 -107.83,208.25 -31.13,316.36 255.41,360.01 844.07,-717.78 1787.04,-240.28 232.78,117.88 263.86,244.25 391.68,413.59 113.31,9.91 790.08,-47.78 871.46,-189.39 125.09,-217.67 -60.18,-829.6 909.93,-926.61 674.3,-67.43 518.14,46.71 789.48,57.58 84.83,3.4 195.96,-119.56 227.48,-205.48 46.46,-126.57 33.87,-83.97 -6.88,-170.82 -63.05,-134.35 -83.13,41.44 -78.06,-163.74 241.59,-94.84 363.75,5.52 358.58,-518.46 -7.5,-2.95 -87.98,-27.88 -95.89,-32.91 -79.02,-50.3 -38.7,7.86 -85.97,-82.5 62.24,-99.08 160.41,-109.63 220.67,-150.05 22.7,-147.44 6.36,-293.73 -58.32,-411.87l-435.21 19.73c79.71,-231.28 176.56,-119.06 385.9,-302.96 -2.77,-154.25 -136.48,-483.13 -303.28,-578.49 -266.11,91.62 -471.2,629.66 -1102.34,308.8 -276.37,-140.51 -141.38,-274.07 -519.15,-292.3 -323.36,-15.61 -379.36,-127.1 -564.58,-250.46 -181.85,40.67 -627.43,390.69 -1038.94,123.33 -334.86,-217.56 -295.56,-531.53 -323.21,-1019.33 -210.98,-52.71 -747.44,173.62 -919.72,241.99 -573.61,227.62 -1680.62,-601.26 -1744.74,407.87 -13.23,208.08 6.59,372.6 61.69,549.5 99.56,319.6 90.74,221.62 323.36,235.55z"/>
   <path class="fil2" d="M4650.46 7412.56c-56.03,-120.43 32.33,-18.34 -105.96,-77.63 -607.44,-260.45 -414.57,-672.57 -568.19,-837.96 -93.29,-61.22 -364.55,-149.7 -508.16,-169.48 -347.83,-47.92 -188.06,188.41 -503.35,165.5 7.59,-224.91 270.35,-282.07 -256.94,-295.91 -609.97,-16 -1092.41,47.38 -1499.96,561.8 -427.42,539.53 -432.51,1472.74 -346.63,2265.98 63.11,582.91 416.17,1491.98 695.52,2002.11 328.29,599.51 730.44,1084.63 1484.88,1229.98 1227.72,236.53 2277.69,-1457.69 2278.87,-1745.37 2.14,-522.62 -652.92,-278.39 -992.98,-313.36 -1319.1,-135.65 -1644.51,-2226.81 -240.77,-2636.74l563.65 -148.93z"/>
   <path class="fil2" d="M8688.19 6496.97c25.87,523.5 769.21,188.57 1348.69,386.37 763.73,260.7 1190.43,1414.27 128.66,2096.05 -109.74,70.46 -477.36,258.2 -532.24,315.67 -85.41,89.43 -224.93,452.29 -210.95,641.82 539.38,383.81 1570.89,388.69 2209.16,-230.17 545.35,-528.78 749.68,-1343.71 748.44,-2258.94 -2.28,-1690.4 -761.32,-3050.56 -2290.36,-2565.42 -275.48,87.42 -433.19,204.57 -649.19,344.09 -399.47,258.03 -227.23,214.21 -286.2,704.85 -46.93,390.44 -274.33,371.98 -466.01,565.68z"/>
   <path class="fil2" d="M6754.47 6908.74c-485.2,135.74 -771.32,322.29 -1029.75,699.82 -894.48,1306.77 249.39,3055.09 1796.28,2750.26 1821.96,-359.04 1751.35,-3088.9 80.72,-3471.33 -252.33,-57.77 -626.24,-40.59 -847.25,21.25z"/>
   <path class="fil1" d="M4989.69 5842.86c-1210.13,216.94 -712.15,1781.92 122.44,1154.21 294.38,-221.42 313.93,-40.81 580.98,-160.12 461.22,-206.07 397.43,-1191.45 -703.42,-994.09z"/>
   <path class="fil1" d="M7940.41 5166.15c-216.97,62.3 -328.26,68.8 -487.11,227.34 -375.3,374.61 -152.4,850.61 153.63,903.56 308.89,53.43 403.64,-110.55 694.13,-46.17 616.98,136.75 711.53,-436.35 598.14,-695.43 -125.32,-286.32 -549.83,-506.75 -958.79,-389.31z"/>
   <path class="fil2" d="M6479.42 1827.61c-262.94,-40.51 -403.25,-292.68 -276.03,-539.98 119.87,-233 383.4,-151.19 684.91,-215.47 -128.2,-403.14 -1028.12,-1165.94 -1302.87,38.54 -150.93,661.66 -39.57,1303.39 667.86,1038.97 340.84,-127.39 253.79,-195.97 226.14,-322.06z"/>
   <path class="fil2" d="M7645.62 2376.83c47.78,208.46 537.85,451.89 918.43,-30.8 578.55,-733.76 157.92,-1393.06 -541.92,-1104.3 -385.48,159.05 76.17,393.89 81.01,397.08 171.57,113.06 193.52,372.67 31.12,487.72 -159.13,112.74 -353.56,57.65 -488.63,250.29z"/>
   <path class="fil2" d="M4575.61 8186.6c-336.65,-48.85 -601.15,149.08 -687.46,438.64 -161.73,542.55 390.22,988.08 707.63,910.68 155.94,-38.02 154.88,-216.93 118.6,-364.13 -120.9,-490.53 -35.92,-758.42 -138.78,-985.19z"/>
   <path class="fil1" d="M7019.73 792.15c81.83,229.46 205.72,265.8 602.28,339.66 77.51,14.44 641.12,-156.7 748.73,-234.02 4,-1071.54 -1133.65,-482.94 -1351.01,-105.65z"/>
   <path class="fil2" d="M7109.47 1267.99c-679.47,198.02 -375.96,1131.73 240.61,961.52 598.33,-165.17 437.38,-1159.11 -240.61,-961.52z"/>
   <path class="fil2" d="M9706.7 8521.22c582.73,44.15 692.92,-1161.01 -192.1,-1034.03 -21.17,237.33 123.66,794.41 192.1,1034.03z"/>
   <path class="fil3" d="M6049.35 4955.29c-53,-283.42 281.05,-277.45 362.39,-183.71 177.78,204.87 -239.79,232.23 -362.39,183.71zm517.6 82.83c35.72,-37.19 157.18,-347.57 -109.45,-457.51 -477.79,-197 -832.84,389.52 -460.53,531.88 171.93,65.74 492.15,6.63 569.98,-74.38z"/>
   <path class="fil0" d="M4169.07 4434.13c-55.19,356.45 -6.29,362.48 145.82,553.38 387.29,7.36 446.74,-297.38 171.12,-642.77 -213.19,-6.97 -169.69,-11.31 -316.95,89.39z"/>
   <path class="fil0" d="M7913.35 4264.02c213.01,-323.26 9.06,-772.59 -296.75,-577.51 -159.28,101.61 -215.51,656.72 296.75,577.51z"/>
   <path class="fil0 str0" d="M6552.13 1592.73c-209.75,39.78 -203.7,-44.52 -177.76,-239.98 124.89,-72.04 42,-59.62 227.17,-81.02 -4.14,190.62 -56.72,188.78 -49.42,321zm-72.71 234.89c-9.09,-10.67 -21.26,-40.5 -26.86,-32.35l-89.01 -87.53c80.14,-29.53 159.27,18.37 188.59,-115.02 95.66,-96.74 92.51,-137.74 141.75,-301.99 11.13,-37.15 50.55,-88.88 56.37,-93.3 130.05,-98.5 54.22,49.77 138.05,-125.26 -301.51,64.28 -565.04,-17.53 -684.91,215.47 -127.22,247.29 13.1,499.47 276.03,539.98z"/>
   <path class="fil4" d="M6049.35 4955.29c122.6,48.52 540.17,21.16 362.39,-183.71 -81.34,-93.74 -415.39,-99.71 -362.39,183.71z"/>
   <path class="fil5" d="M6552.13 1592.73c-7.3,-132.23 45.28,-130.38 49.42,-321 -185.17,21.41 -102.28,8.98 -227.17,81.02 -25.94,195.46 -32,279.76 177.76,239.98z"/>
   <path class="fil5" d="M7889.92 2054.15c232.97,9.49 317.79,-217.32 70.56,-256.01 -24.81,35.74 -27.71,2.98 -58.31,104.27 -27.01,89.42 -14.58,68.73 -12.26,151.75z"/>
  </g>
 </g>
</svg>
