<?xml version="1.0" encoding="UTF-8"?>
<!DOCTYPE svg PUBLIC "-//W3C//DTD SVG 1.1//EN" "http://www.w3.org/Graphics/SVG/1.1/DTD/svg11.dtd">
<!-- Creator: CorelDRAW -->
<svg xmlns="http://www.w3.org/2000/svg" xml:space="preserve" width="210mm" height="297mm" version="1.1" style="shape-rendering:geometricPrecision; text-rendering:geometricPrecision; image-rendering:optimizeQuality; fill-rule:evenodd; clip-rule:evenodd"
viewBox="0 0 21000 29700"
 xmlns:xlink="http://www.w3.org/1999/xlink"
 xmlns:xodm="http://www.corel.com/coreldraw/odm/2003">
 <defs>
  <style type="text/css">
   <![CDATA[
    .fil0 {fill:#040303}
    .fil2 {fill:#E96868}
    .fil3 {fill:#EDD4B5}
    .fil1 {fill:#FEFEFE}
   ]]>
  </style>
 </defs>
 <g id="Layer_x0020_1">
  <metadata id="CorelCorpID_0Corel-Layer"/>
  <g id="_2059245873328">
   <path class="fil0" d="M4644.64 17566.64l353.56 -129.88c84.81,214.89 172.61,318.81 304.28,452.37l396 383.36c-143.88,117.54 -388.03,243.34 -637.91,249.6 -125.29,-193.36 -420.85,-679.93 -415.93,-955.45zm11719.16 685.78c-264.34,-23.77 -474.02,-156.1 -729.54,-87.81 -34.07,293.34 233.64,357.1 471.11,422.34 -101.57,738.83 -1515.76,1257.54 -2148.8,1460.96 -978.35,314.39 -2030.66,472.01 -3113.47,518.94 -1119.12,48.5 -2239.32,-121.69 -3182.01,-412.79 -658.4,-203.31 -2116.87,-868.41 -2331.42,-1316.88 73.82,-80.45 184.83,-146.81 300.97,-205.42l314.96 -182.85c289.49,-163.15 2351.6,876.46 3722.88,-999.18 130.38,-178.33 280,-421.77 364.22,-659.06 89.82,-253.05 111.04,-572.65 252.87,-762.16 160.23,-38.92 252.13,-53.98 391.96,1.11 257.1,114.35 143.56,860.95 784.02,1587.76 349.28,396.37 760.44,767.75 1494.2,903.47 1059.62,195.99 2558.09,30.87 3026.16,-1034.04 59.14,-134.56 81.05,-332.23 143.88,-437.61 275.88,194.58 161.24,157.39 575.02,200.6 -16.53,418.93 -200.71,728.11 -337.01,1002.62zm-12122.41 -2066.78l537.08 -7.24c66.25,203.5 107.32,786.08 49.22,979.38l-324.77 48.75c-166.91,-389.06 -210.48,-519.46 -261.53,-1020.89zm11903.25 769.91c-34.94,-791.16 62.72,-1059.68 818.99,-1098.19 -2.75,309.06 -47.4,606.88 -112.84,873.48 -51.14,208.32 -68.93,152.03 -294.84,154.59 -207.31,2.36 -252.2,51.68 -411.31,70.12zm-6431.57 -588.87c-106.5,425.44 -414.68,987.52 -645.85,1222.5 -303.38,308.38 -773.12,484.26 -1326.5,551.21 -1383.17,167.33 -2057.31,-189.97 -2415.87,-1300.28 -435.56,-1348.71 774.64,-1595.01 1886.15,-1666.79 624.03,-40.3 1156.01,22.61 1696.95,156.45 546.48,135.21 979.5,340.4 805.12,1036.91zm1546.12 -105.87c-184.93,-1131.38 1749.38,-1110.61 2653.44,-1079.35 508.52,17.58 1075.63,165.7 1462.99,387.99 457.13,262.34 466.14,801.85 271.32,1371.66 -359.64,1051.9 -1154.65,1374.61 -2471.87,1192.46 -525.12,-72.61 -1023.2,-253.14 -1287.37,-588.96 -225.15,-286.22 -553.87,-827.16 -628.51,-1283.8zm-1173.84 -940.53c84.66,-22.67 690.63,-93.05 799.96,63.3 19.09,27.3 175.37,507.42 -360.46,530.01 -111.73,4.72 -222.63,-5.86 -332.88,-22.99 -106.79,-193.54 -130.86,-322.23 -106.62,-570.32zm4594.05 -2339.6c20.14,-162.79 101.26,-249.37 148.63,-396.39 43.07,-133.66 65.78,-264.85 92.72,-431.16 332.48,-16.13 812.78,925.49 -241.35,827.55zm-23.52 -637.37c-429.1,1375.81 -2391.12,747.36 -1997.46,-609.88 141.82,-488.95 659.96,-902.92 1294.94,-707.4 464.52,143.03 903.87,671.71 702.52,1317.28zm306.6 -821.94c496.95,-136.87 1155.29,-508.89 1694.92,-91.29 419.62,324.73 260.68,1253.98 69.07,1719.92 -171.11,416.1 -577.74,999.13 -1206.1,896.72 -244.2,-39.8 -1339.47,-450.61 -1271.17,-837.88 288.1,-110.58 576.68,70.95 849.28,34.95 486.55,-64.25 718.76,-737.02 236.91,-1125.23 -225.94,-182.03 -401.03,-163.99 -372.91,-597.19zm-2567.97 109.66c-705.55,-214.24 -297.95,-1235.95 342.43,-699.43 -32.7,130.88 -120.01,189.21 -192.44,323.21 -53.03,98.1 -80.35,285.13 -149.99,376.22zm-880.32 -2499.66c731.86,-302.04 2266.58,1241.79 1679.65,1546.86 -279.56,145.3 -927.32,-501.56 -1311.09,24.46 -133.82,183.41 -121.62,525.46 -29.11,739.82 133.03,308.24 328.66,316.43 417.96,459.42 146.83,235.1 -5.45,470.81 -244.22,522.73 -229.91,50 -620.56,25.33 -864.76,11.77 -670.46,-37.23 -909.35,-184.11 -809.98,-925.25 121.59,-906.88 506,-2109.27 1161.55,-2379.81zm915.58 3457.26c193.38,176.61 380.38,644.36 795.67,754.39 720.77,190.97 424.1,-132.78 1119.43,436.04 237.48,194.28 629.95,462.22 995.35,556.63 602.15,155.59 935.53,-243.09 1246.28,-296.32 181.58,446.43 409.98,758.11 363.13,1408.96l-358.25 62.6c-296.65,-362.22 60.29,-397.94 -1271.18,-554.87 -1003.92,-118.33 -2369.13,-298.33 -3337.11,-23.98 -2728.92,773.47 -1533.88,-201.12 -4772.01,-124.81 -543.21,12.8 -1913.53,148.81 -2449.86,310.86 -322.61,97.47 -261.53,293.58 -324.88,625.84 -314.77,70.63 -289.99,-8.38 -298.26,-293.47 -5.9,-203.34 3.38,-411.15 31.57,-607.34 220.25,-1532.78 939.58,-2312.6 1046.14,-2862.21 -286.49,-108.2 -158.86,-23.4 -433.61,7.15 -94.13,-1522.62 -628,-3336.71 2444.49,-1774.26 355.01,180.53 420.82,243.67 868.71,187.23 718.04,-90.49 1349.19,-201.85 2112.44,-141.81 -1.53,627.61 -453.32,1696.98 35.78,2190.23 551.08,555.75 1869.21,156.23 2186.17,139.14zm1089.27 -2643.67c364.41,-281.15 1350.01,-553.8 1884.1,-615.55 503.63,-58.23 580.59,123.29 724.85,479.51 64.68,159.72 116.7,313.03 149.49,491.12 27.82,151.08 65.4,337.99 36,487.6 -43.37,220.7 -274.39,62.94 -780.75,207.77 -202.89,58.03 -444.76,163.6 -634.81,237.6 -458.15,-294.58 -185.03,-460.44 -1227.59,-589.54l-151.29 -698.51zm-9453.94 7412.41c-259.35,149.27 -1068.76,151.97 -873.28,527.65 277.49,159.43 728.11,-72.66 1022.52,-101.61 99.15,115.26 383.55,842.97 415.49,1018.47 -208.85,168.4 -997.4,481.1 -1050.06,776.44 283.59,322.62 623.03,-232.46 1339.76,-475.29 322.91,167.88 860.12,909.46 2459.91,1437.37 2245.24,740.89 6160.13,630.77 8137.81,-660.47 463.28,-302.48 649.12,-552.38 1002.6,-962.03 361.46,14.45 997.48,445.05 1323.85,400.67 6,-318.75 -170.88,-400.96 -409.79,-511.32 -208.65,-96.38 -449.92,-202.85 -665.1,-278.23 31.24,-300.93 279.79,-878.47 420.97,-1071.34 412.21,-55.82 668.99,145.87 1122.32,64.05 79.14,-440.79 -384.92,-427.87 -1044.9,-568.28l149.55 -1061.64 1290.18 34.35 11.46 -369.95c-342.49,-165.78 -898.26,56.4 -1283.78,-142.43 -126.24,-395.63 -96.25,-816.84 -256.45,-1227.56 -273.88,-702.19 -187.35,-417.75 -11.3,-1116.82 100.14,-397.64 159.7,-925.15 96.86,-1333.71 -101.68,-661.11 -546.95,-621.5 -588.24,-911.68 -118.16,-830.43 -112.39,-1976.59 -1072.32,-1947.85 -741.37,22.21 -1724.06,757.02 -2336.92,722.68 -252.12,-353.97 -1571.66,-1525.88 -2344.81,-460.24 -723.1,996.67 -229.29,682.52 -1700.45,735.66 -403.43,14.57 -716.49,98.73 -1093.55,130.29 -497.64,41.66 -945.83,-380.39 -1794.55,-662.11 -655.85,-217.71 -1518.27,-377.61 -1818.3,270.49 -212.37,458.74 -225.16,427.82 -243.65,1001.75 -13.99,433.93 -23.19,709.62 40.81,1136.63 36.94,246.48 194.4,805.47 112.13,1014.78 -52.78,134.27 -130.76,239.56 -196.27,402.14 -207.87,515.83 -303.22,915.65 -387.28,1495.23 -22.79,157.16 -100.81,1038.74 -124.27,1091.01 -147.56,203.64 -1372.35,-75.51 -1448.71,435.75 337.86,272.91 1112.5,21.44 1549.87,76.38 72.98,461.55 161.9,684.45 247.89,1090.77z"/>
   <path class="fil1" d="M12429.77 12588.63c-316.96,17.09 -1635.09,416.61 -2186.17,-139.14 -489.1,-493.25 -37.31,-1562.62 -35.78,-2190.23 -763.25,-60.04 -1394.4,51.32 -2112.44,141.81 -447.89,56.44 -513.7,-6.7 -868.71,-187.23 -3072.49,-1562.45 -2538.62,251.64 -2444.49,1774.26 274.75,-30.55 147.12,-115.35 433.61,-7.15 -106.56,549.61 -825.89,1329.43 -1046.14,2862.21 -28.19,196.19 -37.47,404 -31.57,607.34 8.27,285.09 -16.51,364.1 298.26,293.47 63.35,-332.26 2.27,-528.37 324.88,-625.84 536.33,-162.05 1906.65,-298.06 2449.86,-310.86 3238.13,-76.31 2043.09,898.28 4772.01,124.81 967.98,-274.35 2333.19,-94.35 3337.11,23.98 1331.47,156.93 974.53,192.65 1271.18,554.87l358.25 -62.6c46.85,-650.85 -181.55,-962.53 -363.13,-1408.96 -310.75,53.23 -644.13,451.91 -1246.28,296.32 -365.4,-94.41 -757.87,-362.35 -995.35,-556.63 -695.33,-568.82 -398.66,-245.07 -1119.43,-436.04 -415.29,-110.03 -602.29,-577.78 -795.67,-754.39z"/>
   <path class="fil1" d="M10250.5 17279.91c1021.24,-255.83 1560.31,852.59 572.3,1069.53 -1007.12,221.14 -1623.66,-806.16 -572.3,-1069.53zm6113.3 972.51c136.3,-274.51 320.48,-583.69 337.01,-1002.62 -413.78,-43.21 -299.14,-6.02 -575.02,-200.6 -62.83,105.38 -84.74,303.05 -143.88,437.61 -468.07,1064.91 -1966.54,1230.03 -3026.16,1034.04 -733.76,-135.72 -1144.92,-507.1 -1494.2,-903.47 -640.46,-726.81 -526.92,-1473.41 -784.02,-1587.76 -139.83,-55.09 -231.73,-40.03 -391.96,-1.11 -141.83,189.51 -163.05,509.11 -252.87,762.16 -84.22,237.29 -233.84,480.73 -364.22,659.06 -1371.28,1875.64 -3433.39,836.03 -3722.88,999.18l-314.96 182.85c-116.14,58.61 -227.15,124.97 -300.97,205.42 214.55,448.47 1673.02,1113.57 2331.42,1316.88 942.69,291.1 2062.89,461.29 3182.01,412.79 1082.81,-46.93 2135.12,-204.55 3113.47,-518.94 633.04,-203.42 2047.23,-722.13 2148.8,-1460.96 -237.47,-65.24 -505.18,-129 -471.11,-422.34 255.52,-68.29 465.2,64.04 729.54,87.81z"/>
   <path class="fil1" d="M13917.42 16356.97l433.22 -51.43c9.04,137.01 -24.47,43.15 -85.38,198.07l351.92 46.24 -44.77 386.97c-291.38,-21.94 -669.96,-260.79 -874.37,-262.95 -244.2,-2.57 -682.43,254.35 -906.49,250.54 -62.63,-301.73 209.26,-410.61 451.77,-482.09 112.76,-33.24 266.94,-48.22 378.11,-84.48 200.1,-65.25 136.75,-149.51 324.49,-173.69 32.2,70.52 -22.27,139.69 -28.5,172.82zm-2658.23 -96.16c74.64,456.64 403.36,997.58 628.51,1283.8 264.17,335.82 762.25,516.35 1287.37,588.96 1317.22,182.15 2112.23,-140.56 2471.87,-1192.46 194.82,-569.81 185.81,-1109.32 -271.32,-1371.66 -387.36,-222.29 -954.47,-370.41 -1462.99,-387.99 -904.06,-31.26 -2838.37,-52.03 -2653.44,1079.35z"/>
   <path class="fil1" d="M6642.58 16327.45l357.25 21.94c56.07,-111.63 -48.88,-72.52 35.26,-183.3 163.35,53.13 200.65,135.43 331.63,183.91 121.04,44.79 270.63,63.85 395.36,103.11 188.48,59.33 586.73,239.05 436.57,480.97 -77.72,50.3 64.95,56.13 -124.15,18.71 -138.46,-27.41 -394.86,-320.07 -753.38,-293.04 -178.88,13.49 -646.29,253.05 -790.27,259.23l-83.79 -13.32c-4.82,-10.63 -19.24,-5.06 -28.98,-9.42l-49.22 -350.93 340.17 -17.62c-19.11,-134.16 -37.78,-34.9 -66.45,-200.24zm3070.49 39.23c174.38,-696.51 -258.64,-901.7 -805.12,-1036.91 -540.94,-133.84 -1072.92,-196.75 -1696.95,-156.45 -1111.51,71.78 -2321.71,318.08 -1886.15,1666.79 358.56,1110.31 1032.7,1467.61 2415.87,1300.28 553.38,-66.95 1023.12,-242.83 1326.5,-551.21 231.17,-234.98 539.35,-797.06 645.85,-1222.5z"/>
   <path class="fil2" d="M11514.19 9131.37c-655.55,270.54 -1039.96,1472.93 -1161.55,2379.81 -99.37,741.14 139.52,888.02 809.98,925.25 244.2,13.56 634.85,38.23 864.76,-11.77 238.77,-51.92 391.05,-287.63 244.22,-522.73 -89.3,-142.99 -284.93,-151.18 -417.96,-459.42 -92.51,-214.36 -104.71,-556.41 29.11,-739.82 383.77,-526.02 1031.53,120.84 1311.09,-24.46 586.93,-305.07 -947.79,-1848.9 -1679.65,-1546.86z"/>
   <path class="fil2" d="M14962.48 11521.37c-28.12,433.2 146.97,415.16 372.91,597.19 481.85,388.21 249.64,1060.98 -236.91,1125.23 -272.6,36 -561.18,-145.53 -849.28,-34.95 -68.3,387.27 1026.97,798.08 1271.17,837.88 628.36,102.41 1034.99,-480.62 1206.1,-896.72 191.61,-465.94 350.55,-1395.19 -69.07,-1719.92 -539.63,-417.6 -1197.97,-45.58 -1694.92,91.29z"/>
   <path class="fil1" d="M13670.33 10643.47c1042.56,129.1 769.44,294.96 1227.59,589.54 190.05,-74 431.92,-179.57 634.81,-237.6 506.36,-144.83 737.38,12.93 780.75,-207.77 29.4,-149.61 -8.18,-336.52 -36,-487.6 -32.79,-178.09 -84.81,-331.4 -149.49,-491.12 -144.26,-356.22 -221.22,-537.74 -724.85,-479.51 -534.09,61.75 -1519.69,334.4 -1884.1,615.55l151.29 698.51z"/>
   <path class="fil2" d="M14655.88 12343.31c201.35,-645.57 -238,-1174.25 -702.52,-1317.28 -634.98,-195.52 -1153.12,218.45 -1294.94,707.4 -393.66,1357.24 1568.36,1985.69 1997.46,609.88z"/>
   <path class="fil0" d="M10349.83 17552.63c643.35,-170.22 934.6,475.73 312.68,582.55 -588.4,101.07 -967.59,-409.26 -312.68,-582.55zm-99.33 -272.72c-1051.36,263.37 -434.82,1290.67 572.3,1069.53 988.01,-216.94 448.94,-1325.36 -572.3,-1069.53z"/>
   <path class="fil1" d="M16144.64 16955.55c159.11,-18.44 204,-67.76 411.31,-70.12 225.91,-2.56 243.7,53.73 294.84,-154.59 65.44,-266.6 110.09,-564.42 112.84,-873.48 -756.27,38.51 -853.93,307.03 -818.99,1098.19z"/>
   <path class="fil0" d="M13917.42 16356.97c6.23,-33.13 60.7,-102.3 28.5,-172.82 -187.74,24.18 -124.39,108.44 -324.49,173.69 -111.17,36.26 -265.35,51.24 -378.11,84.48 -242.51,71.48 -514.4,180.36 -451.77,482.09 224.06,3.81 662.29,-253.11 906.49,-250.54 204.41,2.16 582.99,241.01 874.37,262.95l44.77 -386.97 -351.92 -46.24c60.91,-154.92 94.42,-61.06 85.38,-198.07l-433.22 51.43z"/>
   <path class="fil0" d="M6999.83 16349.39l-357.25 -21.94c28.67,165.34 47.34,66.08 66.45,200.24l-340.17 17.62 49.22 350.93c9.74,4.36 24.16,-1.21 28.98,9.42l83.79 13.32c143.98,-6.18 611.39,-245.74 790.27,-259.23 358.52,-27.03 614.92,265.63 753.38,293.04 189.1,37.42 46.43,31.59 124.15,-18.71 150.16,-241.92 -248.09,-421.64 -436.57,-480.97 -124.73,-39.26 -274.32,-58.32 -395.36,-103.11 -130.98,-48.48 -168.28,-130.78 -331.63,-183.91 -84.14,110.78 20.81,71.67 -35.26,183.3z"/>
   <path class="fil1" d="M4644.64 17566.64c-4.92,275.52 290.64,762.09 415.93,955.45 249.88,-6.26 494.03,-132.06 637.91,-249.6l-396 -383.36c-131.67,-133.56 -219.47,-237.48 -304.28,-452.37l-353.56 129.88z"/>
   <path class="fil1" d="M4241.39 16185.64c51.05,501.43 94.62,631.83 261.53,1020.89l324.77 -48.75c58.1,-193.3 17.03,-775.88 -49.22,-979.38l-537.08 7.24z"/>
   <path class="fil3" d="M10349.83 17552.63c-654.91,173.29 -275.72,683.62 312.68,582.55 621.92,-106.82 330.67,-752.77 -312.68,-582.55z"/>
   <path class="fil1" d="M10191.97 15890.6c110.25,17.13 221.15,27.71 332.88,22.99 535.83,-22.59 379.55,-502.71 360.46,-530.01 -109.33,-156.35 -715.3,-85.97 -799.96,-63.3 -24.24,248.09 -0.17,376.78 106.62,570.32z"/>
   <path class="fil2" d="M12394.51 11631.03c69.64,-91.09 96.96,-278.12 149.99,-376.22 72.43,-134 159.74,-192.33 192.44,-323.21 -640.38,-536.52 -1047.98,485.19 -342.43,699.43z"/>
   <path class="fil2" d="M14679.4 12980.68c1054.13,97.94 573.83,-843.68 241.35,-827.55 -26.94,166.31 -49.65,297.5 -92.72,431.16 -47.37,147.02 -128.49,233.6 -148.63,396.39z"/>
  </g>
 </g>
</svg>
