<?xml version="1.0" encoding="UTF-8"?>
<!DOCTYPE svg PUBLIC "-//W3C//DTD SVG 1.1//EN" "http://www.w3.org/Graphics/SVG/1.1/DTD/svg11.dtd">
<!-- Creator: CorelDRAW -->
<svg xmlns="http://www.w3.org/2000/svg" xml:space="preserve" width="210mm" height="297mm" version="1.1" style="shape-rendering:geometricPrecision; text-rendering:geometricPrecision; image-rendering:optimizeQuality; fill-rule:evenodd; clip-rule:evenodd"
viewBox="0 0 21000 29700"
 xmlns:xlink="http://www.w3.org/1999/xlink"
 xmlns:xodm="http://www.corel.com/coreldraw/odm/2003">
 <defs>
  <style type="text/css">
   <![CDATA[
    .fil0 {fill:#030001}
    .fil1 {fill:#FB89C9}
   ]]>
  </style>
 </defs>
 <g id="Layer_x0020_1">
  <metadata id="CorelCorpID_0Corel-Layer"/>
  <g id="_2252387744368">
   <path class="fil0" d="M12143.25 16622.13c0.6,-167.07 70.11,-235.22 131.97,-366.3 62.89,-133.28 80.84,-266.49 188.94,-332.99 414.3,141.52 230.22,850.46 -320.91,699.29zm-271.6 -1024.46c-382.79,1898.24 -2777,1270.92 -2530.49,-307.76 106.1,-679.55 601.01,-1203.78 1431.46,-1135.25 669.51,55.25 1244.61,721.05 1099.03,1443.01zm-529.08 1624.26c405.72,-265.02 235.94,-221.79 701.87,-143.72 1120.44,187.74 1456.25,-944.91 826.42,-1534.6 -228.91,-214.33 -425.27,-158.79 -448.72,-549.66 -22.17,-369.37 272.71,-353.68 573.22,-414.9 576.85,-117.52 1212.44,27.84 1529.91,369.2 930.96,1001.02 -720.75,3398.23 -2168.48,3232.34 -424.01,-48.58 -1078.51,-534.64 -1014.22,-958.66zm-2476.18 -2416.68c-304.02,8.95 -452.97,-392.97 -286.47,-696.28 139.23,-253.64 510.81,-346.37 739.63,-100.25 -32.35,140.31 -154.69,245.24 -243.9,388.71 -82.07,131.99 -130.7,276.64 -209.26,407.82zm-77.15 -1445c-972.83,268.84 -992.06,1338.87 -475.59,1768.2 26.37,21.93 1062.2,518.81 -131.31,803.55 -1791.25,427.34 -2285.24,-813.29 -1769.14,-2367.84 707.12,-2129.94 2339.1,-2952.34 3503.54,-569.15 61.98,126.86 134.84,281.15 124.64,450.01 -37.15,615.14 -545.59,-280.01 -1252.14,-84.77zm-3152.05 1743.08c235.99,1306.93 1425.07,1861.91 2829.32,1333.34 793.96,-298.84 257.82,185.14 1369.83,731.47 191.25,93.97 799.21,198.23 862.46,267.54 138.05,151.25 728.95,1536.59 2047.03,1377.91 598.21,-72.02 1193.72,-470.59 1485.84,-775.53 344.88,-360.02 735.83,-762.87 958.36,-1333.15 637.61,-1634.01 -298.92,-3115.68 -2402.22,-2725.21 -330.22,61.3 -657.33,247.79 -905.89,45.92 -682.87,-554.61 -996.2,-315.49 -1133.28,-592.09 -174.28,-351.68 -315.92,-1197.38 -982.25,-1844.03 -1036.68,-1006.07 -2099.65,-925.75 -3016.49,88.64 -569.12,629.68 -1332.59,2207.44 -1112.71,3425.19z"/>
   <path class="fil1" d="M8789.24 13360.25c706.55,-195.24 1214.99,699.91 1252.14,84.77 10.2,-168.86 -62.66,-323.15 -124.64,-450.01 -1164.44,-2383.19 -2796.42,-1560.79 -3503.54,569.15 -516.1,1554.55 -22.11,2795.18 1769.14,2367.84 1193.51,-284.74 157.68,-781.62 131.31,-803.55 -516.47,-429.33 -497.24,-1499.36 475.59,-1768.2z"/>
   <path class="fil1" d="M11342.57 17221.93c-64.29,424.02 590.21,910.08 1014.22,958.66 1447.73,165.89 3099.44,-2231.32 2168.48,-3232.34 -317.47,-341.36 -953.06,-486.72 -1529.91,-369.2 -300.51,61.22 -595.39,45.53 -573.22,414.9 23.45,390.87 219.81,335.33 448.72,549.66 629.83,589.69 294.02,1722.34 -826.42,1534.6 -465.93,-78.07 -296.15,-121.3 -701.87,143.72z"/>
   <path class="fil1" d="M11871.65 15597.67c145.58,-721.96 -429.52,-1387.76 -1099.03,-1443.01 -830.45,-68.53 -1325.36,455.7 -1431.46,1135.25 -246.51,1578.68 2147.7,2206 2530.49,307.76z"/>
   <path class="fil1" d="M8866.39 14805.25c78.56,-131.18 127.19,-275.83 209.26,-407.82 89.21,-143.47 211.55,-248.4 243.9,-388.71 -228.82,-246.12 -600.4,-153.39 -739.63,100.25 -166.5,303.31 -17.55,705.23 286.47,696.28z"/>
   <path class="fil1" d="M12143.25 16622.13c551.13,151.17 735.21,-557.77 320.91,-699.29 -108.1,66.5 -126.05,199.71 -188.94,332.99 -61.86,131.08 -131.37,199.23 -131.97,366.3z"/>
  </g>
 </g>
</svg>
