<?xml version="1.0" encoding="UTF-8"?>
<!DOCTYPE svg PUBLIC "-//W3C//DTD SVG 1.1//EN" "http://www.w3.org/Graphics/SVG/1.1/DTD/svg11.dtd">
<!-- Creator: CorelDRAW -->
<svg xmlns="http://www.w3.org/2000/svg" xml:space="preserve" width="210mm" height="297mm" version="1.1" style="shape-rendering:geometricPrecision; text-rendering:geometricPrecision; image-rendering:optimizeQuality; fill-rule:evenodd; clip-rule:evenodd"
viewBox="0 0 21000 29700"
 xmlns:xlink="http://www.w3.org/1999/xlink"
 xmlns:xodm="http://www.corel.com/coreldraw/odm/2003">
 <defs>
  <style type="text/css">
   <![CDATA[
    .str0 {stroke:#050504;stroke-width:7.62;stroke-miterlimit:22.9256}
    .fil1 {fill:#050504}
    .fil3 {fill:#DD6D8E}
    .fil5 {fill:#E9B568}
    .fil2 {fill:#EAAEC3}
    .fil4 {fill:#ECA936}
    .fil0 {fill:#FDFDFD}
   ]]>
  </style>
 </defs>
 <g id="Layer_x0020_1">
  <metadata id="CorelCorpID_0Corel-Layer"/>
  <g id="_2647393010160">
   <path class="fil0" d="M10199.02 14095.47c509.8,-166.04 839.9,417.55 345.03,574.56 -577.63,183.26 -861.15,-406.46 -345.03,-574.56zm1931.88 -628.35c357.62,-195.01 529.69,487.07 240.78,640.86 -365.34,194.48 -570.17,-461.23 -240.78,-640.86zm-3497.61 399.42c269.13,3.91 173.76,-146.17 376.63,-144.96 52.69,401.17 -824.14,447.09 -769.83,-49.11 224.14,40.17 130.34,190.26 393.2,194.07zm-1575.28 -789.18c186.37,106.9 417.39,33.94 451.67,246.83 -130.27,70.86 -288.85,16.01 -461.36,23.92 -64.62,159.59 -6.78,357.67 60.01,515.59l272.54 30.62c-29.38,141.28 28.4,76.23 -131.2,167.67 -199.91,114.54 3.3,-17.47 -77.37,37.95 17.88,192.56 111.73,299.47 160.85,448.98 157.8,16.11 234.28,-19.89 359.4,44.68 -26.62,157.15 -11.8,81.55 -143.7,171.6 260.81,838.89 2952,1033.97 3143.58,871.32 86.46,-75.12 39.83,-12.14 67.77,-158.3 15.08,-78.88 7.85,-102.48 29.69,-177.33 85.63,-293.56 422.02,-555.84 730.86,-548.22 139.87,3.45 239.08,69.11 344.98,99.86 167.9,48.74 194.26,-5.76 358.37,2.33 298.24,14.71 275.62,243.63 424.35,398.72 101.95,-21 478.59,-244.12 534.49,-342.62 -121.77,-145.36 -185.23,-31.57 -182.1,-246.83 183.6,-88.33 278.38,131.38 447.39,26.48 90.26,-56.02 213.26,-274.57 227.6,-420.48 -183.54,-30.52 -205.56,-4.99 -267.15,-154.52 136.47,-51.7 223.63,-24.24 393.92,-25.23 58.39,-192.12 123.47,-314.77 125.64,-531.21 -195.84,-37.17 -307.16,36.5 -466.28,-54.76 50.93,-275.81 320.95,-52.22 460.13,-209.21 191.28,-215.77 -179.52,-1215.49 -404.66,-1546.74 -147.78,-217.43 -264.91,-323.09 122.05,-314.77 94.49,-478.52 127.02,-674.98 -94.36,-1087.85 -191.46,-357.06 -652.67,-176.15 -968.15,-56.14 -468.11,178.06 -387.81,323.52 -961.08,225.85 -244.08,-41.59 -1012.49,-110.49 -1205.21,-12.27 105.54,91.13 820.98,182.83 767.85,774.56 -19.81,220.67 -172.71,377.9 -331.25,456.06 -189.8,93.57 -456.27,50.97 -699.42,72.88 -2.45,225.44 11.91,388.87 -104.14,567.22 -80.4,123.57 -231.88,245.16 -459.61,250.15 -493.48,10.82 -554.49,-360.21 -715.97,-695.95 -200.51,38.74 -747.57,381.06 -1091.37,-74.01 -367.56,-486.52 213.7,-888.31 312,-998.29 -63.08,-132.23 -163.86,-198.4 -228.69,-351.78 -91.38,-216.15 9.46,-341.33 31.57,-530.6 -419.56,-48.36 -440.93,107.31 -510.01,508.94 -14.54,84.53 -68.91,343.56 -69.41,404.1 -0.99,119.43 22.36,348.53 27.95,498.59 14.11,379.23 88.6,559.67 -81.52,881.27 -121.79,230.22 -218.9,498.55 -200.65,810.94z"/>
   <path class="fil1" d="M10925.26 19005.18l911.96 -131.49c163.98,236.07 273.37,718.01 39.41,941.67 -214.61,205.17 -661.46,235.98 -1023.37,231.79 26.72,-179.5 128.84,-253.15 141.98,-482.45 13.39,-233.5 -71.07,-333.4 -69.98,-559.52zm-3031.64 -218.63c146.63,-20.5 985.01,157.75 1266.59,177.44l1435.17 49.53c208.76,291.46 216.93,771.41 -96.62,937.95 -318.6,169.22 -815.66,153.78 -1232.34,130.8 -408.71,-22.54 -811.84,-91.52 -1058.05,-302.88 -192.81,-165.52 -432.05,-679.65 -314.75,-992.84zm-277.48 -728.73l-26.59 134.23c-198.81,-10.35 -67.98,-6.03 -118.17,-49.68 -290.24,-140.98 -113.96,-622.22 225.44,-601.21 -29.61,172.57 -86.23,328.27 -80.68,516.66zm1178.15 -678.57c72.1,-124.25 636.65,-540.24 794.03,-665.95 122.45,-97.81 329.49,-177.39 545.22,-130.65 345.61,74.89 141.69,332.6 80.63,443.22 -81.22,147.15 140.61,781.08 -504.36,867.41 -345.17,46.2 -831.41,-294 -915.52,-514.03zm2692.89 -782.02c153.99,-125.6 753.93,-602.84 943.53,-655.42 298.62,618.26 105.73,1304.97 -620.62,1006.88 -186.32,-76.47 -304.07,-156.14 -322.91,-351.46zm-2889.14 524.02c-177.09,-152.81 -417.29,-646.35 -345.27,-968.78 89.66,-401.47 739.25,-580.89 1264.6,25.53 167.42,193.25 -1.84,307.72 -131.77,403.54 -164.08,121 -597.86,495.71 -787.56,539.71zm1945.02 -1144.42c168.77,-13.55 228.92,-46.98 297.93,76.11 41,73.14 75.57,209.59 75.9,300.09 -215.2,-57.88 -369.59,-178.17 -373.83,-376.2zm-868.32 -55.93l574.89 22.74c355.32,693.01 610.49,538.18 861.35,683.52 85.54,49.56 156.13,173.6 254.94,272.74 289.4,290.37 254.74,201.08 334.48,713.36 41.67,267.76 120.72,733.02 56.07,989.59 -575.03,246 -3519.33,177.35 -3917.4,-178.99 -41.02,-425.87 121.18,-1123.78 371.54,-1347.78 114.41,74.31 950.05,1482.19 1812.56,989.1 479.05,-273.87 361.38,-762.65 473.88,-1005.36 240.05,-517.85 -131.09,-727.5 -605.16,-766.34 -52.41,-110.23 -199.92,-249.92 -217.15,-372.58zm1600.09 465.55c-224.18,-217.99 -404.14,-944.57 -131.21,-1218.53 136.51,-137.02 394.74,-207.13 611.33,-101.51 368.73,179.81 267.21,-80.6 581.31,83.04 50.29,197.45 -9.68,308.9 -60.5,477.91 -60.65,201.69 -128.57,201.12 -284.7,317.4 -147.08,109.55 -522.35,435.17 -716.23,441.69zm-2042.81 -6091.27c164.07,-252.77 288.5,-859.79 790.86,-688.49 516.25,176.03 63.26,990.88 51.76,1114.06 388.33,17.77 928.38,106.64 901.93,516.57 -35.6,551.95 -872.99,290.54 -993.61,363.26 -91.88,83.67 25.48,285.26 -58.17,547.45 -50.37,157.89 -179.76,296.97 -408.73,267.17 -442.61,-57.61 -392.11,-624.7 -496.02,-812.02 -207.92,10 -313.92,184.86 -514.3,248.51 -487.28,154.76 -856.39,-261.1 -488.79,-660.77 230.15,-250.25 338.62,-146.17 420.37,-335.02 -123.36,-177.82 -258.03,-141.94 -368.16,-387.86 -183.72,-410.21 277.86,-705.31 735,-453.12 256.85,141.7 279.67,252.62 427.86,280.26zm-2174.01 2782.18c-18.25,-312.39 78.86,-580.72 200.65,-810.94 170.12,-321.6 95.63,-502.04 81.52,-881.27 -5.59,-150.06 -28.94,-379.16 -27.95,-498.59 0.5,-60.54 54.87,-319.57 69.41,-404.1 69.08,-401.63 90.45,-557.3 510.01,-508.94 -22.11,189.27 -122.95,314.45 -31.57,530.6 64.83,153.38 165.61,219.55 228.69,351.78 -98.3,109.98 -679.56,511.77 -312,998.29 343.8,455.07 890.86,112.75 1091.37,74.01 161.48,335.74 222.49,706.77 715.97,695.95 227.73,-4.99 379.21,-126.58 459.61,-250.15 116.05,-178.35 101.69,-341.78 104.14,-567.22 243.15,-21.91 509.62,20.69 699.42,-72.88 158.54,-78.16 311.44,-235.39 331.25,-456.06 53.13,-591.73 -662.31,-683.43 -767.85,-774.56 192.72,-98.22 961.13,-29.32 1205.21,12.27 573.27,97.67 492.97,-47.79 961.08,-225.85 315.48,-120.01 776.69,-300.92 968.15,56.14 221.38,412.87 188.85,609.33 94.36,1087.85 -386.96,-8.32 -269.83,97.34 -122.05,314.77 225.14,331.25 595.94,1330.97 404.66,1546.74 -139.18,156.99 -409.2,-66.6 -460.13,209.21 159.12,91.26 270.44,17.59 466.28,54.76 -2.17,216.44 -67.25,339.09 -125.64,531.21 -170.29,0.99 -257.45,-26.47 -393.92,25.23 61.59,149.53 83.61,124 267.15,154.52 -14.34,145.91 -137.34,364.46 -227.6,420.48 -169.01,104.9 -263.79,-114.81 -447.39,-26.48 -3.13,215.26 60.33,101.47 182.1,246.83 -55.9,98.5 -432.54,321.62 -534.49,342.62 -148.73,-155.09 -126.11,-384.01 -424.35,-398.72 -164.11,-8.09 -190.47,46.41 -358.37,-2.33 -105.9,-30.75 -205.11,-96.41 -344.98,-99.86 -308.84,-7.62 -645.23,254.66 -730.86,548.22 -21.84,74.85 -14.61,98.45 -29.69,177.33 -27.94,146.16 18.69,83.18 -67.77,158.3 -191.58,162.65 -2882.77,-32.43 -3143.58,-871.32 131.9,-90.05 117.08,-14.45 143.7,-171.6 -125.12,-64.57 -201.6,-28.57 -359.4,-44.68 -49.12,-149.51 -142.97,-256.42 -160.85,-448.98 80.67,-55.42 -122.54,76.59 77.37,-37.95 159.6,-91.44 101.82,-26.39 131.2,-167.67l-272.54 -30.62c-66.79,-157.92 -124.63,-356 -60.01,-515.59 172.51,-7.91 331.09,46.94 461.36,-23.92 -34.28,-212.89 -265.3,-139.93 -451.67,-246.83zm2104.65 -3133.03c-194.2,-43.29 -298.18,-179.92 -530.44,-222.73 -264.01,-48.67 -426.49,37.03 -736.55,-31.89 -1050.04,-233.4 -715.95,1401.04 -795.76,2180.76 -19.87,194.1 -128.74,396.13 -189.66,575.35 -218.19,641.86 78.71,618.18 -638.74,636.19 -225.71,5.67 -299.11,-4.31 -332.35,192.38 292.67,66.52 557.65,-28.64 839.94,71.94l7.56 522.14 -524.75 149.55c-159.89,77.32 -95.88,-9.16 -99.78,152.45 162.11,76.23 471.87,-41.72 689.96,-12.99 96.2,148.13 182.28,323.65 198.61,506.65 -211.06,140.37 -593.47,163.85 -604.52,460.18 311.84,68.67 455.92,-216.01 811.82,-203.09 64.42,62.99 120.52,139.07 196.33,218.07 198.49,206.84 566.66,393.23 821.27,513.8 -83.11,183.49 -282.13,246.76 -302.99,566.51 -25.51,390.98 182.4,352.93 -32.39,747.04 -206.57,379.01 -133.16,226.71 -510.78,406.85 -190.24,90.76 -366.39,285.71 -320.77,604.31 46.91,327.68 292,322.42 413.65,476.6 186.52,236.38 -138.44,1417.81 975.77,1774.76 543.77,174.21 2858.43,154.49 3326.27,-76.77 469.81,-232.23 574.19,-717.42 310.38,-1272.62 -154.08,-324.28 -96.54,-428.44 -111.04,-796.24 -8.56,-217.1 -138.23,-641.42 -79.67,-785.63 184.88,-75.2 640.29,46.95 831.36,-534.32 169.86,-516.74 -102.71,-722.24 -163.98,-1112.14 45,-51.28 696.45,-469.6 787.06,-521.34 292.83,-167.19 550.04,298.05 894.59,302.38 31.44,-261.16 -217.15,-323.67 -584.22,-551.23l240.64 -442.83 620.09 7.52c9.06,-206.36 -296.03,-214.37 -445.7,-275.47 -21.1,-201.78 44.79,-465.17 144.74,-589.04 168,-29.72 235.43,-13.63 400.29,13.74 161.86,26.88 265.75,63.46 377.69,-24.15 -47.9,-254.13 -418.33,-139.2 -790.39,-268.82 -72.24,-306.15 -28.73,-546.07 -130.27,-860.68 -61.76,-191.36 -259.5,-547.71 -251.14,-738.15 14.5,-330.22 338.47,-813.22 -155.79,-1601.1 -301.49,-480.6 -1037.97,-147.29 -1471.38,36.06 -471.03,199.26 -338.2,91.75 -800.68,56.88 -323.27,-24.37 -660.73,11.04 -995.08,-10.22 60.82,-1125.7 -957.47,-1002.69 -1289.2,-240.66z"/>
   <path class="fil2" d="M10249.63 15943.64l-574.89 -22.74c17.23,122.66 164.74,262.35 217.15,372.58 474.07,38.84 845.21,248.49 605.16,766.34 -112.5,242.71 5.17,731.49 -473.88,1005.36 -862.51,493.09 -1698.15,-914.79 -1812.56,-989.1 -250.36,224 -412.56,921.91 -371.54,1347.78 398.07,356.34 3342.37,424.99 3917.4,178.99 64.65,-256.57 -14.4,-721.83 -56.07,-989.59 -79.74,-512.28 -45.08,-422.99 -334.48,-713.36 -98.81,-99.14 -169.4,-223.18 -254.94,-272.74 -250.86,-145.34 -506.03,9.49 -861.35,-683.52z"/>
   <path class="fil3" d="M9288.64 10588.63c502.09,-141.91 686.73,637.64 188.06,735.2 -513.43,100.46 -699.01,-590.8 -188.06,-735.2zm-56.62 -293.45c-148.19,-27.64 -171.01,-138.56 -427.86,-280.26 -457.14,-252.19 -918.72,42.91 -735,453.12 110.13,245.92 244.8,210.04 368.16,387.86 -81.75,188.85 -190.22,84.77 -420.37,335.02 -367.6,399.67 1.51,815.53 488.79,660.77 200.38,-63.65 306.38,-238.51 514.3,-248.51 103.91,187.32 53.41,754.41 496.02,812.02 228.97,29.8 358.36,-109.28 408.73,-267.17 83.65,-262.19 -33.71,-463.78 58.17,-547.45 120.62,-72.72 958.01,188.69 993.61,-363.26 26.45,-409.93 -513.6,-498.8 -901.93,-516.57 11.5,-123.18 464.49,-938.03 -51.76,-1114.06 -502.36,-171.3 -626.79,435.72 -790.86,688.49z"/>
   <path class="fil0" d="M9266.42 20082.27c416.68,22.98 913.74,38.42 1232.34,-130.8 313.55,-166.54 305.38,-646.49 96.62,-937.95l-1435.17 -49.53c-281.58,-19.69 -1119.96,-197.94 -1266.59,-177.44 -117.3,313.19 121.94,827.32 314.75,992.84 246.21,211.36 649.34,280.34 1058.05,302.88z"/>
   <path class="fil0" d="M8794.29 17379.25c84.11,220.03 570.35,560.23 915.52,514.03 644.97,-86.33 423.14,-720.26 504.36,-867.41 61.06,-110.62 264.98,-368.33 -80.63,-443.22 -215.73,-46.74 -422.77,32.84 -545.22,130.65 -157.38,125.71 -721.93,541.7 -794.03,665.95z"/>
   <path class="fil0" d="M11274.83 16386.45c193.88,-6.52 569.15,-332.14 716.23,-441.69 156.13,-116.28 224.05,-115.71 284.7,-317.4 50.82,-169.01 110.79,-280.46 60.5,-477.91 -314.1,-163.64 -212.58,96.77 -581.31,-83.04 -216.59,-105.62 -474.82,-35.51 -611.33,101.51 -272.93,273.96 -92.97,1000.54 131.21,1218.53z"/>
   <path class="fil3" d="M8598.04 17121.25c189.7,-44 623.48,-418.71 787.56,-539.71 129.93,-95.82 299.19,-210.29 131.77,-403.54 -525.35,-606.42 -1174.94,-427 -1264.6,-25.53 -72.02,322.43 168.18,815.97 345.27,968.78z"/>
   <path class="fil0" d="M10925.26 19005.18c-1.09,226.12 83.37,326.02 69.98,559.52 -13.14,229.3 -115.26,302.95 -141.98,482.45 361.91,4.19 808.76,-26.62 1023.37,-231.79 233.96,-223.66 124.57,-705.6 -39.41,-941.67l-911.96 131.49z"/>
   <path class="fil3" d="M11487.18 16597.23c18.84,195.32 136.59,274.99 322.91,351.46 726.35,298.09 919.24,-388.62 620.62,-1006.88 -189.6,52.58 -789.54,529.82 -943.53,655.42z"/>
   <path class="fil1" d="M12130.9 13467.12c-329.39,179.63 -124.56,835.34 240.78,640.86 288.91,-153.79 116.84,-835.87 -240.78,-640.86z"/>
   <path class="fil1" d="M9518.44 11172.36c-167.73,2.34 -279.25,36.36 -337.25,-90.43 -141.35,-308.98 190.2,-459.24 362.92,-326.08 81.74,63.02 69.52,185.75 64.27,307.74l-89.94 108.77zm-229.8 -583.73c-510.95,144.4 -325.37,835.66 188.06,735.2 498.67,-97.56 314.03,-877.11 -188.06,-735.2z"/>
   <path class="fil1" d="M10612.91 14498.22c-83.94,113.89 -686.8,105.04 -498.73,-183.94 66.3,-101.88 227.15,-100.79 351.72,-81.3 136.18,21.31 230.47,152.01 147.01,265.24zm-413.89 -402.75c-516.12,168.1 -232.6,757.82 345.03,574.56 494.87,-157.01 164.77,-740.6 -345.03,-574.56z"/>
   <path class="fil4" d="M10612.91 14498.22c83.46,-113.23 -10.83,-243.93 -147.01,-265.24 -124.57,-19.49 -285.42,-20.58 -351.72,81.3 -188.07,288.98 414.79,297.83 498.73,183.94z"/>
   <path class="fil0" d="M7471.38 18142.37l108.22 20.17 36.54 -104.72c-5.55,-188.39 51.07,-344.09 80.68,-516.66 -339.4,-21.01 -515.68,460.23 -225.44,601.21z"/>
   <path class="fil1" d="M9009.92 13721.58c-202.87,-1.21 -107.5,148.87 -376.63,144.96 -262.86,-3.81 -169.06,-153.9 -393.2,-194.07 -54.31,496.2 822.52,450.28 769.83,49.11z"/>
   <path class="fil5" d="M9212.5 10926.42c39.69,-56.5 7.63,-26.03 54.76,-70.26 81.72,-76.69 141.17,-57.1 204.48,-56.32 142.42,213.44 69.11,391.48 -229.03,261.89l-30.21 -135.31zm305.94 245.94l89.94 -108.77c5.25,-121.99 17.47,-244.72 -64.27,-307.74 -172.72,-133.16 -504.27,17.1 -362.92,326.08 58,126.79 169.52,92.77 337.25,90.43z"/>
   <path class="fil3" d="M10840.99 16052.94c-69.01,-123.09 -129.16,-89.66 -297.93,-76.11 4.24,198.03 158.63,318.32 373.83,376.2 -0.33,-90.5 -34.9,-226.95 -75.9,-300.09z"/>
   <path class="fil4" d="M9212.5 10926.42l30.21 135.31c298.14,129.59 371.45,-48.45 229.03,-261.89 -63.31,-0.78 -122.76,-20.37 -204.48,56.32 -47.13,44.23 -15.07,13.76 -54.76,70.26z"/>
   <path class="fil1 str0" d="M7471.38 18142.37c50.19,43.65 -80.64,39.33 118.17,49.68l26.59 -134.23 -36.54 104.72 -108.22 -20.17z"/>
  </g>
 </g>
</svg>
