<?xml version="1.0" encoding="UTF-8"?>
<!DOCTYPE svg PUBLIC "-//W3C//DTD SVG 1.1//EN" "http://www.w3.org/Graphics/SVG/1.1/DTD/svg11.dtd">
<!-- Creator: CorelDRAW -->
<svg xmlns="http://www.w3.org/2000/svg" xml:space="preserve" width="210mm" height="297mm" version="1.1" style="shape-rendering:geometricPrecision; text-rendering:geometricPrecision; image-rendering:optimizeQuality; fill-rule:evenodd; clip-rule:evenodd"
viewBox="0 0 21000 29700"
 xmlns:xlink="http://www.w3.org/1999/xlink"
 xmlns:xodm="http://www.corel.com/coreldraw/odm/2003">
 <defs>
  <style type="text/css">
   <![CDATA[
    .fil1 {fill:#040404}
    .fil3 {fill:#A6D33E}
    .fil5 {fill:#AEB96C}
    .fil4 {fill:#E9AF32}
    .fil6 {fill:#F2A7DB}
    .fil2 {fill:#F935AC}
    .fil0 {fill:#FDFDFD}
    .fil7 {fill:#FEC9F8}
   ]]>
  </style>
 </defs>
 <g id="Layer_x0020_1">
  <metadata id="CorelCorpID_0Corel-Layer"/>
  <g id="_2647386010464">
   <path class="fil0" d="M8669.17 14275.17c521.14,-197.57 788.19,397.94 340.64,568.35 -199.56,75.99 -494.05,41.34 -583.81,-115.23 -166.07,-289.71 87.03,-393.92 243.17,-453.12zm-1958.79 -473.05c387.12,-236.97 523.52,511.91 242.66,641.14 -362.03,166.59 -564.75,-443.97 -242.66,-641.14zm3743.19 -311c375.99,-232.61 508.93,484.57 238.22,635.7 -194.95,108.83 -332.07,-35.8 -377.1,-195.57 -67.81,-240.55 1.02,-354.84 138.88,-440.13zm-5124.83 -1658.09l241.81 -8.42c26.39,237.82 -225.5,558.2 -313.27,853.51 -486.79,1637.78 338.25,855.63 392.12,1279.2 -151.68,76.26 -196.02,7.72 -332.96,52.24 -7.52,2.44 -17.46,8 -23.81,10.65 -6.2,2.59 -17.03,10.76 -21.81,13.13 -146.92,72.93 74.48,449.47 105.85,500.54 196.2,31.38 189.56,-55.38 373.89,17.06 -19.72,172.7 -58.1,102.08 -208.47,206.72 -10.14,192.91 133.63,312.23 247.48,389.02 117.41,39.72 218.81,-71.91 319.59,-67.31 266.42,12.18 6.04,203.82 -26.01,277.97 211.47,255.51 879.36,460.33 1291.15,533.42 1131.16,200.77 3882.01,-30.84 4375.82,-1062.55 -45.85,-96.48 -144.22,-136.86 -133.67,-212.88 25.81,-185.92 486.07,108.57 472.89,-552.18 -34.93,-19.79 -69.01,-27.98 -116.06,-59.93 -99.39,-67.47 -38.76,4.39 -91.73,-92.17 140.31,-231.89 386.63,90.36 285.06,-602.36 -234.21,-45.52 -262.54,62.74 -479.74,-5.78 -1.88,-129.18 25.19,-146.5 148.69,-185.99 168.63,-53.91 212.43,-8.33 275.9,-120.22 58.67,-146.45 -2.98,-409.53 -82.06,-537.99 -60.29,32.57 -13.41,3.37 -64.2,45.77 -9.74,8.13 -44.91,41.17 -56.05,51.5 -543.18,504.22 -1214.81,398.48 -1587.16,-181.88 -232.68,-362.68 -226.7,-66.09 -598.63,-318.5 -359.95,-244.27 -66.77,-210.45 -589.78,-93.48 -503.16,112.53 -941.29,-73.82 -1129.19,-551.97 -124.09,-315.76 -63.43,-448.66 -73.25,-765.63 -293.43,23.02 -709.79,190.03 -942.06,187.1 -435.49,-5.49 -1383.39,-766.81 -1678.34,-13.72 -154.45,394.35 -97.71,669.29 18,1015.13z"/>
   <path class="fil1" d="M8490.35 19996.26c36.42,48.63 10.74,10.07 32.91,65.81l6.87 50.53c-249.16,63.12 -902.52,-30.23 -1114.62,-138.96 -175,-89.72 -483.36,-422.66 -436.94,-745.7 183.66,-19.82 189.5,121.91 356.2,191.93 232.23,97.55 294.93,-32.87 499.49,-35.62l562.47 524.96c24.57,22.85 82,71.54 93.62,87.05zm-913.74 -793.88c-151.12,72.16 -202.58,-3.96 -249.95,-115.43 147.41,0.94 212.76,-18.33 249.95,115.43zm608.3 141.1c274.32,-285.1 408.32,-293.86 517.22,-365.7 115.16,-75.97 94.44,-126.01 241.37,-179.28 162.39,-58.88 164.67,-12.22 299.29,-126.57 188.72,-160.29 55.09,-64.26 297.6,-128.91 180.78,-48.2 132.85,-111.33 274.58,-148.12 159.05,-41.29 206.82,30.21 356.83,-62.5 75.4,-46.6 145.37,-135.46 235.95,-201.91 120.34,38.8 453.92,247.46 543.33,317.3 164.66,128.61 237.34,340.53 115.2,603.56 -235.84,507.87 -1417.2,1408.26 -2015.83,1051.16 -221.68,-132.24 -770.73,-565 -865.54,-759.03zm-1356.27 -547.1c124.47,58.98 139.12,37.56 213.61,159.07 -138.41,72.21 -216.19,-23.98 -213.61,-159.07zm1091.25 249.87c-20.19,-187.04 168.84,-247.93 306.33,-333.48 371.65,-231.25 958.97,-567.15 1418.69,-610.82 -60.05,298 -174.38,194.62 -425.48,192.39 -212.09,385.2 -155.17,161.67 -488.62,289.29 -80.24,98.28 -57.49,152.56 -148.33,203.47 -94.76,53.11 -151.56,15.95 -260.34,53.56 -120.43,129.07 -111.41,357.91 -402.25,205.59zm1885.38 -937.41c18.56,-87.12 -41.64,-81.53 135.32,-121.02 181.73,-40.56 194.98,14.95 195.48,15.19 -47.1,177.56 -158.87,223.38 -330.8,105.83zm-3394.38 -444.74c760.07,-166.74 826.44,626.64 427.97,720.27 -245.8,57.77 -511.12,-110.39 -606.75,-224.95 -197.61,-236.74 -128.33,-427.94 178.78,-495.32zm4040.7 -1676.45c283.21,-125.91 361.55,239.42 483.2,394.9 160.5,205.14 216.54,454.84 74.07,705.53 -464.9,818.06 -2683.88,80.1 -1990.4,-793.21 314.03,-395.47 900.29,-167.31 1109.4,-171.76 135.98,-2.89 197.61,-79.38 323.73,-135.46zm2218.61 -852.77c835.88,-187.35 1540.51,428.85 1661.73,1092.24 160.35,877.55 -403.81,1525.74 -1108.99,1663.34 -1788.43,348.97 -2433.5,-2334.02 -552.74,-2755.58zm-4722.56 3448.24l-58.02 48.87c-99.59,112.47 -254.84,264.55 -466.57,212.24 -163.54,-40.41 -335.12,-162.35 -402.57,-276.81 92.16,-203.31 297.23,-267.8 248.07,-664.9 -37.71,-304.59 -263.51,-337.27 -501.48,-438.48l152.19 -203.85c16.9,-113.38 -19.63,-37 38.75,-89.73l57.23 -126.43c241.86,21.99 288.7,112.39 600.18,66.96 801.71,-116.95 794.19,-867.07 1107.88,-912.48 10.55,256.41 -107.08,431.22 -22.43,693.87 184.4,572.13 997.16,658.52 1360.56,757.87 -27.11,105.22 -5.29,64.56 -117.81,104.96l-450.75 109.64c-803.37,217.01 -1361.11,657.66 -1545.23,718.27zm-709.63 -1738.75c59.85,-167.69 188.78,-257.2 352.59,-495.6 122.45,-178.18 369.06,-152.32 704.35,-110.52 -23.31,364.62 -617.31,825.92 -1056.94,606.12zm6759.54 -3910.7c645.17,113.15 1375.93,666.82 1689.71,1020.74 350.29,395.1 840.42,1096.94 921.37,1788.63 55.45,593.45 162.78,1338.52 -94.3,1864.62 -41.82,274.73 -291.35,738.99 -414.64,941.53 -178.43,293.13 -405.4,504.16 -617.45,721.63 -308.25,316.12 -1154.8,882.6 -1768.77,897.83 -459.33,165.18 -1581.56,58.59 -1985.8,-115.54 -257.3,-67.42 -627.81,-226.87 -762.96,-392.15 58.35,-274.88 620.95,-621.73 314.77,-1189.65 -178.06,-330.29 -692.61,-392.44 -914.09,-750.5l130.03 -60.14c453.73,-140.59 375.48,-91.56 718.79,-429.94 70.73,-319.96 203.24,-442.02 21.43,-796.51 -100.59,-196.11 -287.5,-425.79 -363.93,-616.23l513.28 -251.04c165.24,-149.76 273.73,-219.83 432.3,-386.35 78.56,-82.5 134.17,-158.88 198.87,-225.3 76.07,-78.09 109.85,-95.22 252.94,-74.23l180.85 88.24c-70.09,83.85 -23.74,51.21 -142.15,80.75 -119.19,100.12 -242.49,146.82 -384.72,271.15 -143.04,125.04 -207.77,189.88 -312.49,365.6 -145.91,177.53 -198.19,395.88 -237.57,670.34 -53.16,370.55 51.49,484.72 101.86,787.36 120.5,134.51 190.08,308.67 307.38,436.13 137.41,149.3 291.45,203.28 395.05,346.26 247.53,54.62 355.01,160.66 697.87,172.15 349.52,11.71 463.42,-11.64 738.56,-142.2 136.58,-102.19 263.41,-154.8 389.2,-272 136.31,-127.01 203.02,-233.09 320.79,-360.02 95.03,-239.69 168.96,-352.01 207.33,-669.86 41.17,-341.16 -64.93,-468.69 -96.27,-751.06 -108.28,-114.91 -195.32,-302.45 -300.47,-430.33 -127.24,-154.75 -221.62,-193.84 -375.67,-338.37 -495.86,-231.34 -506.97,-139.22 -789.92,-222.64 -103.73,-30.59 -633,-275.68 -690.89,-331.29 16.93,-872.31 524.33,-392.09 812.26,-599.68 -34.77,-97.9 35.55,-45.56 -98.71,-113.4 -89.95,-45.45 -397.39,-50.82 -549.74,-103.23l44.45 -558.32c219.66,-80.55 607.56,10.75 773.04,-142.21 -156.6,-322.05 -758.8,34.55 -826.44,-161.87 -89.56,-260.12 1334.75,-83.93 1564.85,31.1zm-2799.86 -1155.22l-45.77 44.92c-84.79,107.52 -94.88,104.63 -235.31,60.83 5.62,-131.26 56.61,-146.45 106.87,-252.39 40.59,-85.57 41.45,-157.21 89.33,-254.71 200.57,57.71 155.56,255.08 84.88,401.35zm-1591.67 -713.67c56.16,-209.05 185.9,-338.03 400.99,-411.57l131.95 -28.97c244.86,-96.48 487.33,93.26 588.78,208.83 83.21,60.94 41.58,-3.44 77.24,116.17 429.41,359.74 -303.66,1434.24 -964.93,887.06l-61.77 -80.9c-192.27,-73.57 -311.64,-482.39 -172.26,-690.62zm2491.94 726.51l1.11 24.97c-310.28,1014.68 -1384.14,1055.33 -1622.13,321.02 193.18,-117.01 188.76,-129.96 395.73,-66.75 216.89,66.23 236.19,-11.62 416.3,-62.89l40.09 -58.52c82.38,-192.04 178.95,-477.16 9.69,-662.77 -173.89,-190.68 -276.82,-31.2 -341.34,-489 345.01,-111.77 716.8,-234.81 999.31,42.03 200.64,196.6 310.52,676.15 101.24,951.91zm-6769.22 41.74c-115.71,-345.84 -172.45,-620.78 -18,-1015.13 294.95,-753.09 1242.85,8.23 1678.34,13.72 232.27,2.93 648.63,-164.08 942.06,-187.1 9.82,316.97 -50.84,449.87 73.25,765.63 187.9,478.15 626.03,664.5 1129.19,551.97 523.01,-116.97 229.83,-150.79 589.78,93.48 371.93,252.41 365.95,-44.18 598.63,318.5 372.35,580.36 1043.98,686.1 1587.16,181.88 11.14,-10.33 46.31,-43.37 56.05,-51.5 50.79,-42.4 3.91,-13.2 64.2,-45.77 79.08,128.46 140.73,391.54 82.06,537.99 -63.47,111.89 -107.27,66.31 -275.9,120.22 -123.5,39.49 -150.57,56.81 -148.69,185.99 217.2,68.52 245.53,-39.74 479.74,5.78 101.57,692.72 -144.75,370.47 -285.06,602.36 52.97,96.56 -7.66,24.7 91.73,92.17 47.05,31.95 81.13,40.14 116.06,59.93 13.18,660.75 -447.08,366.26 -472.89,552.18 -10.55,76.02 87.82,116.4 133.67,212.88 -493.81,1031.71 -3244.66,1263.32 -4375.82,1062.55 -411.79,-73.09 -1079.68,-277.91 -1291.15,-533.42 32.05,-74.15 292.43,-265.79 26.01,-277.97 -100.78,-4.6 -202.18,107.03 -319.59,67.31 -113.85,-76.79 -257.62,-196.11 -247.48,-389.02 150.37,-104.64 188.75,-34.02 208.47,-206.72 -184.33,-72.44 -177.69,14.32 -373.89,-17.06 -31.37,-51.07 -252.77,-427.61 -105.85,-500.54 4.78,-2.37 15.61,-10.54 21.81,-13.13 6.35,-2.65 16.29,-8.21 23.81,-10.65 136.94,-44.52 181.28,24.02 332.96,-52.24 -53.87,-423.57 -878.91,358.58 -392.12,-1279.2 87.77,-295.31 339.66,-615.69 313.27,-853.51l-241.81 8.42zm4137.75 -992.8l-41.89 104.68 -38.45 144.83c-235.66,-53.07 -186.77,-290.32 -125,-407.33 76.93,-145.72 194.63,-207.16 394.43,-109.21 -21.22,69.6 -25.93,78.03 -73.82,147.24l-115.27 119.79zm872.86 -476.51c0.76,-148.43 14.85,-153.27 109.71,-221.71 744.31,-537 1250.55,-246.67 1182.41,300.52 -363.89,6.56 -461.84,105.37 -710,138.76 -136.97,18.44 -166.72,-52.13 -283.92,-108.94 -101.91,-49.39 -213.87,-66.26 -298.2,-108.63zm-2054.45 -20.4l66.36 -137.77c80.51,-257.18 342.72,-522.74 548.53,-628.35l107.84 -38.34c127.4,-84.33 303.78,-89.79 445.77,-0.93 329.43,59.78 595.22,479.25 645.64,845.56l-145.02 83.59c-202.64,58.91 -153.01,-107.01 -392.74,-131.65 -241.52,-24.82 -401.88,105.61 -481.06,271.77 -299.16,627.7 423.12,555.04 314.26,1021.38 -309.88,233.17 -866.31,164.39 -1079.61,-138.38 -190.77,-270.79 -223.64,-848.36 -29.97,-1146.88zm1946.58 -385.08c-118.01,-117.32 -159.45,-283.83 -314.9,-423.93 -512.1,-461.52 -1104.35,-329.37 -1502.97,122.77 -578.15,655.76 -53.59,611.63 -717.63,738.32 -728.43,138.98 -438.37,203.96 -1161.03,-23.83 -290.68,-91.62 -898.44,-270.97 -1198.54,-89.18 -406.21,246.06 -457.49,1088.76 -242.83,1714.29 141.36,411.93 -95.17,355.99 -208.03,1111.68 -33.43,223.82 3.52,496.48 -34.96,674.73 -355.53,157.46 -748.09,29.66 -740.55,328.76 270.66,66.25 483.12,-99.73 762.94,-61.11 91.41,98.63 213.51,455.46 188.95,577.66 -158.96,144.3 -372.7,85.26 -449.81,305.64 220.44,139.21 386.43,-125.14 586.96,-42.18 70.26,29.07 294.72,347.06 325.79,430.21 -149.79,245.24 -521.25,241.76 -551.06,606.03 240.37,-3.15 389.95,-198.39 571.2,-323.07 246.65,-169.68 343.11,-14.75 557.96,109.09 695.73,401.01 1110.69,360.64 1272.57,489.84 -51.78,129.41 -151.29,226.05 -236.11,327.99 -93.75,112.66 -167.8,200.34 -255.6,308.1 -379.04,465.2 -209.02,546.18 -513.95,618.03 -191.67,45.17 -278.15,60.21 -362.51,198.67 -232.75,382.02 66.51,778.54 592.46,942.42 -6.37,352.35 176.42,1027.93 367.64,1294.04 443.15,616.68 1511.35,404.36 2031.66,455.65 316.68,31.21 241.4,168.63 681.05,29.83 504.26,-159.2 705.43,-355.47 1080.1,-582.67 266.96,67.36 1756.41,1238.02 3810.18,289.08 3153.35,-1456.99 3045.58,-5877.81 -162.64,-7210.67 -716.87,-297.83 -1222.56,-291.78 -2050.95,-248.9 -322.33,-579.41 34.22,-575.43 79.08,-1147 56.8,-723.62 -437.27,-889.69 -498.97,-1000.75 -85.01,-153 -78.68,-371.67 -202.39,-575.68 -433.26,-714.52 -1005.81,-162.25 -1503.11,56.14z"/>
   <path class="fil2" d="M15346.95 18884.9c-24.89,-165.62 22.84,-234.53 200.64,-198.28l35.08 163c-79.28,98.61 -106.62,121.57 -235.72,35.28zm-1733.21 -928.05c279.41,828.09 71.39,1356.69 99.73,2211.8 613.97,-15.23 1460.52,-581.71 1768.77,-897.83 212.05,-217.47 439.02,-428.5 617.45,-721.63 123.29,-202.54 372.82,-666.8 414.64,-941.53l-178.78 2.41c-83.28,110.01 -212.96,513.71 -446.88,869.14 -76.77,116.65 -84.77,164.19 -260.45,151.31 -178.95,-295.09 294.1,-495.11 362.42,-1025.25 -283.79,-20.69 -640.56,-33.69 -926.35,-69.35 -119.69,-14.94 -288.05,-51.11 -401.59,-90.41 -153.61,-53.17 -188.66,-117.58 -338.97,-120.68 -117.77,126.93 -184.48,233.01 -320.79,360.02 -125.79,117.2 -252.62,169.81 -389.2,272z"/>
   <path class="fil3" d="M11727.67 20053.11c404.24,174.13 1526.47,280.72 1985.8,115.54 -28.34,-855.11 179.68,-1383.71 -99.73,-2211.8 -275.14,130.56 -389.04,153.91 -738.56,142.2 -342.86,-11.49 -450.34,-117.53 -697.87,-172.15 -377.57,528.98 -267.45,1357.48 -319.47,2136.5l-130.17 -10.29z"/>
   <path class="fil0" d="M8184.91 19343.48c94.81,194.03 643.86,626.79 865.54,759.03 598.63,357.1 1779.99,-543.29 2015.83,-1051.16 122.14,-263.03 49.46,-474.95 -115.2,-603.56 -89.41,-69.84 -422.99,-278.5 -543.33,-317.3 -90.58,66.45 -160.55,155.31 -235.95,201.91 -150.01,92.71 -197.78,21.21 -356.83,62.5 -141.73,36.79 -93.8,99.92 -274.58,148.12 -242.51,64.65 -108.88,-31.38 -297.6,128.91 -134.62,114.35 -136.9,67.69 -299.29,126.57 -146.93,53.27 -126.21,103.31 -241.37,179.28 -108.9,71.84 -242.9,80.6 -517.22,365.7z"/>
   <path class="fil2" d="M13758.65 15135.21c154.05,144.53 248.43,183.62 375.67,338.37 105.15,127.88 192.19,315.42 300.47,430.33 275.87,-283.22 1157.8,-177.58 1644.24,-198.22 -53.88,-517.79 -491.17,-1115.4 -743.85,-1398.17 -183.62,-205.48 -905.41,-825.48 -1331.58,-841.76 39.85,248.4 9.78,713.09 -39.15,935.32 -28.22,128.14 -51.26,261.63 -98.7,397.61 -41.9,120.09 -111.38,208 -107.1,336.52z"/>
   <path class="fil2" d="M7439.7 18510.05c46.94,42.92 57.53,-31.75 43.64,61.05 -17.94,119.81 27.55,24.89 -72.12,74.43 -26.19,-42.66 -55.11,55.85 -29.11,-75.95 12.86,-65.24 7.02,-35.63 57.59,-59.53zm676.59 -240.16c8.02,8.61 22.58,6.37 24.92,25.02l33.11 115.6c-112.87,-24.02 -232.88,-40.67 -58.03,-140.62zm-516.64 85.88c44.63,-114.4 22.73,-102.96 127.15,-35.28 -47.86,97.22 -9.14,119.16 -127.15,35.28zm728.15 -287.8c167.04,100.88 36.91,125 35.26,128.84 -99.36,-34.63 -32.01,35.32 -69.41,-53.03 -48.58,-114.74 16.86,-52.78 34.15,-75.81zm-383.55 76.14c-50.44,41.41 -1.17,125.67 -131.05,0 17.29,-126.24 75.45,-108.39 131.05,0zm-465.51 -1.8c-15.09,116.3 12.86,16.59 -67.52,53.26 -73.33,-103.81 -55.37,-73.59 35.25,-132.28 35.46,51.45 44.42,-14.75 32.27,79.02zm1536.48 -300.3c3.02,116.93 13.59,93.83 -89.64,120 -36.67,-66.78 -30.54,17.64 -13.59,-120.27l103.23 0.27zm-441.48 109.75c-84.53,2.03 -50.91,-26.43 -66.81,-106.4l116.72 2.7c1.79,60.98 11.97,102.21 -49.91,103.7zm-418.55 -119.22c7.4,116.23 37.15,49.36 -38.9,124.27 -143.16,-75.73 -109.22,-98.95 38.9,-124.27zm-497.2 126.88c-127.54,-109 -40.08,-85.18 0,-128.81 135.36,77.09 68.88,87.85 0,128.81zm1128.11 -333.07c70.61,110.35 59.79,76.6 -35.26,117.68 -111.83,-99.39 -51.98,-87.63 35.26,-117.68zm-423.04 1.17c60.9,109.79 49.22,76.61 -35.26,118.12 -118.25,-107.13 -53.82,-88.89 35.26,-118.12zm-448.89 -13.29c39.11,98.48 56.15,80.35 -44.66,136.2 -123.22,-148.49 -60.25,-99.49 44.66,-136.2zm-514 -1.36c95.51,43.82 141.52,10.22 46.3,129.17 -109.93,-39.87 -87.08,-33.75 -46.3,-129.17zm2152.44 72.66c58.41,-48.81 -14.26,-28.16 76.34,-37.75 180.53,-19.1 -47.63,-47.19 52.08,37.75 -64.98,52.54 12.65,26.89 -78.19,35.99 -158.59,15.87 28.26,30.83 -50.23,-35.99zm-420.14 -69.84c121.01,45.26 57.22,-50.85 101.14,131.63 -147.71,-36.71 -158.78,16.97 -101.14,-131.63zm-1961.6 -156.05c-71.86,-134.22 2.33,-42.72 17.66,-75.9 127.47,-0.3 135.11,-5.5 46.42,119.34 -67.9,-27.64 -26.35,27.02 -64.08,-43.44zm1791.49 -82.8c75.02,59.84 54.34,0.56 54.97,124.12l-105.89 -12.06c-36.58,-127.87 -29.75,-60.71 50.92,-112.06zm-387.78 2.91c108.71,110.33 66.36,123.03 -49.92,113.15 -21.12,-54.97 -53.69,72.82 -4.99,-71.94 16.91,-50.27 40.77,-34.09 54.91,-41.21zm-458.29 -0.55c71.64,75.38 45.86,16.25 41.35,124.13 -157.47,-21.26 -187.24,-40.8 -41.35,-124.13zm-391.88 59.4c-71.94,64.77 21.39,27.58 -124.94,64.28 30.3,-144.13 29.9,-188.14 124.94,-64.28zm603.39 -262.31c82.74,48.34 106.67,-15.26 35.26,122.13 -198.08,-63.62 -44.78,-107.12 -35.26,-122.13zm-401.01 72.4c-4.69,81.01 -13.87,25.26 -57.28,53.1 -126.3,-132.64 -15.43,-107.61 0,-130.06 81.62,51.55 64.92,-54.98 57.28,76.96zm-449.42 5.49c-13.48,98 0.03,20.33 -66.15,48.28 -85.62,-112.08 -43.88,-80.5 35.25,-128.67 36.18,56.68 43.4,-10.55 30.9,80.39zm1219.24 -27.23c126.21,-122.42 95.84,-26.61 128.69,0 -65.57,125.61 -73.6,105.61 -128.69,0zm-63.64 -176.38c-20.26,12.69 46.15,139.02 -131.55,0 36.68,-29.03 -53.44,-64.05 73.56,-59.41 113.56,4.15 14.57,-11.38 57.99,59.41zm-541.23 31.4c-109.19,-14.82 -22.27,-5.77 -48.59,-66.68 122.78,-65.83 70.19,-57.42 130.05,35.28 -56.95,36.29 8.88,43.66 -81.46,31.4zm236.06 -185.65c-136.11,-115.7 -40.9,-96.53 35.26,-119.83 71.4,116.06 52.74,75.24 -35.26,119.83zm282.03 -247.96c-147.92,-18.23 -77.47,10.87 -105.24,-96.49 84.47,-61.22 136.28,-11.29 105.24,96.49zm-1651.82 522.1c94.54,22.1 86.13,1.48 81.26,109.18 -128.87,29.14 -36.06,33.56 -120.01,-19.45l-152.19 203.85c237.97,101.21 463.77,133.89 501.48,438.48 49.16,397.1 -155.91,461.59 -248.07,664.9 67.45,114.46 239.03,236.4 402.57,276.81 211.73,52.31 366.98,-99.77 466.57,-212.24 -103.86,-25.75 -51.06,90.11 -70.16,-113.44 208.4,15.01 62.5,1.26 128.18,64.57 184.12,-60.61 741.86,-501.26 1545.23,-718.27l450.75 -109.64c112.52,-40.4 90.7,0.26 117.81,-104.96 -363.4,-99.35 -1176.16,-185.74 -1360.56,-757.87 -84.65,-262.65 32.98,-437.46 22.43,-693.87 -313.69,45.41 -306.17,795.53 -1107.88,912.48 -311.48,45.43 -358.32,-44.97 -600.18,-66.96l-57.23 126.43z"/>
   <path class="fil3" d="M14434.79 15903.91c31.34,282.37 137.44,409.9 96.27,751.06 -38.37,317.85 -112.3,430.17 -207.33,669.86 150.31,3.1 185.36,67.51 338.97,120.68 113.54,39.3 281.9,75.47 401.59,90.41 285.79,35.66 642.56,48.66 926.35,69.35 232.32,-406.26 281.85,-1445.02 88.39,-1899.58 -486.44,20.64 -1368.37,-85 -1644.24,198.22z"/>
   <path class="fil3" d="M13758.65 15135.21c-4.28,-128.52 65.2,-216.43 107.1,-336.52 47.44,-135.98 70.48,-269.47 98.7,-397.61 48.93,-222.23 79,-686.92 39.15,-935.32 -132.2,-122.7 -194.47,-56.44 -166.24,-285.84l171.99 -49.19 -11.8 -197.06c-230.1,-115.03 -1654.41,-291.22 -1564.85,-31.1 67.64,196.42 669.84,-160.18 826.44,161.87 -165.48,152.96 -553.38,61.66 -773.04,142.21l-44.45 558.32c152.35,52.41 459.79,57.78 549.74,103.23 134.26,67.84 63.94,15.5 98.71,113.4 -287.93,207.59 -795.33,-272.63 -812.26,599.68 57.89,55.61 587.16,300.7 690.89,331.29 282.95,83.42 294.06,-8.7 789.92,222.64z"/>
   <path class="fil0" d="M10451.59 15987.65c-126.12,56.08 -187.75,132.57 -323.73,135.46 -209.11,4.45 -795.37,-223.71 -1109.4,171.76 -693.48,873.31 1525.5,1611.27 1990.4,793.21 142.47,-250.69 86.43,-500.39 -74.07,-705.53 -121.65,-155.48 -199.99,-520.81 -483.2,-394.9z"/>
   <path class="fil2" d="M11214.21 17230.73c-343.31,338.38 -265.06,289.35 -718.79,429.94l-130.03 60.14c221.48,358.06 736.03,420.21 914.09,750.5 306.18,567.92 -256.42,914.77 -314.77,1189.65 135.15,165.28 505.66,324.73 762.96,392.15l130.17 10.29c52.02,-779.02 -58.1,-1607.52 319.47,-2136.5 -103.6,-142.98 -257.64,-196.96 -395.05,-346.26 -117.3,-127.46 -186.88,-301.62 -307.38,-436.13 -76.07,51.75 -173,106.61 -260.67,86.22z"/>
   <path class="fil2" d="M9105.95 11582.86c22.91,-57.09 -51.39,-49.94 44.61,-64.09 93.63,-13.81 17.68,-8.66 80.77,28.82 -48.71,81.25 22.66,120.41 -125.38,35.27zm-319.81 -97.59c77.26,120.32 79.12,82.67 -35.3,134.82 -41.53,-51.43 -68.73,66.11 -36.62,-71.2 20.21,-86.39 14.36,-40.01 71.92,-63.62zm114.14 -184.61c103.05,-76.73 47.14,-59.81 122.79,0 -76.08,210.49 -102.58,23.94 -122.79,0zm-270.46 35.27c-44.92,25.85 56.16,94.09 -84.19,25.48 -32.17,-15.73 -52.47,40.67 -27.48,-53.53 43.56,-164.13 94.84,-0.85 111.67,28.05zm69.85 -211.65c42.31,-79.17 -61.39,-62.73 57.29,-68.92 118.34,-6.16 35.47,-10.87 74.93,68.92 -8.77,5.69 -21.23,7 -25.96,17.61 -4.3,9.63 -20.59,11.41 -26.27,10.98 -72.47,-5.6 -40.36,-4.97 -79.99,-28.59zm-421.39 48.83c7.4,-56.59 -11.74,-212.33 98.42,-100.6 91.43,92.75 -42.49,91.22 -98.42,100.6zm684.08 -356.82c74.56,108.4 53.83,44.99 0,131.79 -106.51,-53.03 -114.33,-79.49 0,-131.79zm-457.72 61.06c68.14,-56.02 13.35,-110.6 125.99,0 -44.88,79.57 -51.97,119.17 -125.99,0zm285.35 -274.92c64.04,96.93 56.2,45.11 -3.89,128.72 -139.23,-45.41 -125.66,-76.23 3.89,-128.72zm-518.4 63.27c136.44,-123.1 114.49,-12 128.95,0 -66,118.57 -79.14,97.36 -128.95,0zm752.7 -176.38c-108.31,83.22 -60.03,51.17 -125.53,0 25.65,-148.13 75.34,-124.66 125.53,0zm-384.42 0c-116.95,109.56 -89.21,98.94 -137.92,-35.27 96.45,-65.12 76.67,-90.94 137.92,35.27zm110.97 -282.08c96.12,49.4 119.99,9.57 35.26,127.65 -67.59,-20.86 -49.23,33.15 -70.64,-57.6 -28.17,-119.4 7.76,-34.16 35.38,-70.05zm931.78 70.43c-62.52,39.78 -52.09,55.37 -132.53,0 69.78,-52.85 36.95,-142.15 132.53,0zm-470.73 -2.54c10.03,100.89 -19.29,41.05 -38.01,60.17 -81.46,-49.27 -108.15,-54.38 0,-128.69 41.21,48.79 29.65,-15.51 38.01,68.52zm173.51 -315.13c90.73,47.24 104.48,14.18 35.26,133.08 -150.83,-45.13 -107.31,-42.68 -35.26,-133.08zm-475.8 -13.37c126.71,35.74 125.37,-10.59 107.26,142.04l-106.36 7.15 -0.9 -149.19zm968.32 152.55c-94.83,-35.39 -69.42,-9.04 -96.59,-109.94l99.92 0.75 -3.33 109.19zm-1254.62 -117.24c3.51,122.47 -0.15,87.41 -90.46,117.47l-33.63 -123.56 124.09 6.09zm127.54 -213.72c86.46,53.16 133.37,42.59 0,114.72 -124.26,-143.68 -3.6,-108.51 0,-114.72zm806.92 50.87c51.91,-40.5 -9.28,-24.38 70.22,-32.16 176.24,-17.25 -37.58,-35.29 48.2,32.16 -59.51,48.91 12.94,25.08 -72.19,33.75 -152.99,15.59 23.63,26.98 -46.23,-33.75zm-383.88 56.33c-115.79,-57.76 -82.26,-44.95 0,-113.6 8.04,13.65 146.46,-48.26 0,113.6zm279.52 -337.49l-32.74 95.99c-99.76,-31.78 -49.96,74.34 -82.83,-123.12l115.57 27.13zm-445.77 0.93l-10.01 100.24c-106.65,-12.26 -63.34,24.58 -97.83,-61.9 -205.81,105.61 -468.02,371.17 -548.53,628.35 71.57,75.37 42.42,-35.84 59.9,125.71l-126.26 12.06c-193.67,298.52 -160.8,876.09 29.97,1146.88 213.3,302.77 769.73,371.55 1079.61,138.38 108.86,-466.34 -613.42,-393.68 -314.26,-1021.38 79.18,-166.16 239.54,-296.59 481.06,-271.77 239.73,24.64 190.1,190.56 392.74,131.65l145.02 -83.59c-50.42,-366.31 -316.21,-785.78 -645.64,-845.56 -141.99,-88.86 -318.37,-83.4 -445.77,0.93z"/>
   <path class="fil0" d="M14003.6 13465.76c426.17,16.28 1147.96,636.28 1331.58,841.76 252.68,282.77 689.97,880.38 743.85,1398.17 193.46,454.56 143.93,1493.32 -88.39,1899.58 -68.32,530.14 -541.37,730.16 -362.42,1025.25 175.68,12.88 183.68,-34.66 260.45,-151.31 233.92,-355.43 363.6,-759.13 446.88,-869.14 0.85,-231.91 115.79,-575.15 134.16,-875.59 23.91,-391.22 -61.4,-638.8 -64.6,-989.2 -139.33,-314.58 -163.58,-573.62 -343.46,-896.11 -150.87,-270.48 -350.05,-565.11 -524.17,-744.91 -487.02,-502.92 -817.7,-650.5 -1528.13,-973.53l-171.99 49.19c-28.23,229.4 34.04,163.14 166.24,285.84z"/>
   <path class="fil2" d="M11288.52 12464.75c75.57,-133.09 85.67,-90.49 128.77,0 -112.19,106.39 -56.21,58.6 -128.77,0zm-396.13 0c65.27,-108.38 40.4,-120.68 124.53,0 -79.01,53.94 -67.25,37.74 -124.53,0zm719.03 -314.26c47.32,88.34 76.24,75.76 -40.31,126.94 -98.1,-108.62 -85.44,-80.67 40.31,-126.94zm-851.14 2.22c95.64,115.93 92.12,88.22 -35.25,122.71 -59.49,-99.76 -53.92,-77.53 35.25,-122.71zm328.86 12.37c132.25,-7.38 67.23,-28.72 118.46,52.74 -52.42,79.59 2.41,36.13 -95.94,61.11l-22.52 -113.85zm693.48 -218.13c126.14,45.71 111.29,23.69 35.26,125.91 -85.92,-36.19 -136.83,-22.7 -35.26,-125.91zm-136.64 -187.71c-77.34,134.12 -58.51,109.28 -127.85,0 55.79,-34.69 1.8,-23.57 79.58,-30.05 151.02,-12.59 -19,-20.27 48.27,30.05zm217.47 -259.58c-20.62,165.24 56.48,103.13 -118.9,119.36 20.14,-173.86 -45.06,-98.84 118.9,-119.36zm224.43 -199c-39.62,118.27 -15.04,117.39 -123.19,35.27 42.38,-43.15 -16.92,-141.48 123.19,-35.27zm-488.51 64.84c-104.74,53.68 -54.16,-15.04 -78.29,-29.57 51.35,-45.84 -107.19,-67.39 114.39,-65.63 -5.67,118.48 40.45,55.97 -36.1,95.2zm183.25 -313.39c162,68.62 49.49,109.29 30.73,128.8 -51.57,-21.97 -46.42,7.35 -60.96,-57.48 -28.84,-128.57 -0.68,-27.14 30.23,-71.32zm-423.31 111.31c-114.14,28.18 -53.08,-24.17 -71.59,-39.14 40.92,-40.58 -31.8,-119.25 136.93,-40.53 -30.49,81.58 36.44,54.54 -65.34,79.67zm183.66 -256.75c-69.12,-144.18 0.61,-40.73 28.14,-84.85 25.07,14.74 195.59,67.09 26.36,112.42 -98.49,26.38 -38.51,5.79 -54.5,-27.57zm-344.48 -86.79c-29.16,128.14 13.97,162.18 -125.4,92.75 46.6,-54.35 -120.68,-43.63 125.4,-92.75zm130.57 1129.24c80.61,19.07 55.74,-27.67 93.16,90.21l-59.09 42.64c-91.55,-36.24 -34.07,3.97 -74.16,-74.33 -180.11,51.27 -199.41,129.12 -416.3,62.89 -206.97,-63.21 -202.55,-50.26 -395.73,66.75 237.99,734.31 1311.85,693.66 1622.13,-321.02l-145.83 -30.03 76.16 -83.79c93.25,59.01 41.03,-13.55 68.56,88.85 209.28,-275.76 99.4,-755.31 -101.24,-951.91 -282.51,-276.84 -654.3,-153.8 -999.31,-42.03 64.52,457.8 167.45,298.32 341.34,489 169.26,185.61 72.69,470.73 -9.69,662.77z"/>
   <path class="fil2" d="M10266.73 11711c84.4,35.58 53.61,-51.88 67.62,50.2 19.59,142.72 5.15,21.88 -32.36,72.65 -82.61,-52.92 -102.06,-23.72 -35.26,-122.85zm197.49 -128.14c36.55,-88.73 -50.49,-58.52 51.5,-70.99 140.1,-17.13 23.95,-3.96 76.83,35.72 -20.99,34.5 34.14,115.36 -128.33,35.27zm-461.19 0c39.43,-77.66 -37.85,-54.02 54.91,-66.43 137.46,-18.41 17.41,-8.44 75.5,31.16 -33.92,57.24 57.62,40.26 -53.06,57.79 -74.42,11.78 -39.54,-3.57 -77.35,-22.52zm791.38 -250.69c16.94,185.38 37.17,-42.4 -34.13,54.68 -126.14,-72.45 -88.63,-69.54 0,-134.22 39.1,53.87 26.25,-6.66 34.13,79.54zm-527.68 -73.06c114.28,38.35 64.57,-103.9 85.82,129.58 -128.26,-33.63 -144.82,-0.22 -85.82,-129.58zm-423.62 113.39c-105.83,29.07 -13.9,8.2 -63.89,-29.08 24.05,-139.75 15.99,-121.99 127.97,-42.76 -34.78,89.72 43.88,42.2 -64.08,71.84zm673.09 -219.37c-104.83,-14.73 -14.08,18.38 -49.54,-64.12 140.75,-84.56 99.73,-10.55 127.7,35.27 -53.97,32.62 60.24,48.3 -78.16,28.85zm-434.51 1.55c-144.68,61.49 -36.5,-2.63 -80.53,-30.4 60.87,-52.03 -22.11,-116.71 128.31,-35.27 -32.14,76.91 34.65,30.64 -47.78,65.67zm-475.67 -89.9c43.27,13.02 83.29,-52.51 59.4,55.7 -19.29,87.34 9.07,16.67 -84.48,59.61l25.08 -115.31zm695.97 -245.82c110.57,127.2 51.03,94.78 -47.34,133.84 -38.38,-96.56 -50.26,-87.55 47.34,-133.84zm-388.55 14.54c-35.72,175.54 -98.77,175.03 -134.79,-1.94l134.79 1.94zm93.57 -180.29c-215.09,73.54 -344.83,202.52 -400.99,411.57 -139.38,208.23 -20.01,617.05 172.26,690.62 111.51,-81.78 50.76,-62 129.41,3.84 -16.64,148.32 11.93,35.41 -67.64,77.06 661.27,547.18 1394.34,-527.32 964.93,-887.06l-114.46 -36.61c-19.17,-161.69 -15.9,-38.56 37.22,-79.56 -101.45,-115.57 -343.92,-305.31 -588.78,-208.83l-33.94 113.47c-154.79,-34.66 -54.24,44.02 -98.01,-84.5z"/>
   <path class="fil2" d="M14009.35 13130.73c710.43,323.03 1041.11,470.61 1528.13,973.53 174.12,179.8 373.3,474.43 524.17,744.91 179.88,322.49 204.13,581.53 343.46,896.11l203.52 -2.24c-80.95,-691.69 -571.08,-1393.53 -921.37,-1788.63 -313.78,-353.92 -1044.54,-907.59 -1689.71,-1020.74l11.8 197.06z"/>
   <path class="fil0" d="M8530.13 20112.6l-6.87 -50.53c-22.17,-55.74 3.51,-17.18 -32.91,-65.81 -11.62,-15.51 -69.05,-64.2 -93.62,-87.05l-562.47 -524.96c-204.56,2.75 -267.26,133.17 -499.49,35.62 -166.7,-70.02 -172.54,-211.75 -356.2,-191.93 -46.42,323.04 261.94,655.98 436.94,745.7 212.1,108.73 865.46,202.08 1114.62,138.96z"/>
   <path class="fil0" d="M10339.35 10363.72c84.33,42.37 196.29,59.24 298.2,108.63 117.2,56.81 146.95,127.38 283.92,108.94 248.16,-33.39 346.11,-132.2 710,-138.76 68.14,-547.19 -438.1,-837.52 -1182.41,-300.52 -94.86,68.44 -108.95,73.28 -109.71,221.71z"/>
   <path class="fil0" d="M6410.89 17664.1c-307.11,67.38 -376.39,258.58 -178.78,495.32 95.63,114.56 360.95,282.72 606.75,224.95 398.47,-93.63 332.1,-887.01 -427.97,-720.27z"/>
   <path class="fil0" d="M7238.01 16844.37c439.63,219.8 1033.63,-241.5 1056.94,-606.12 -335.29,-41.8 -581.9,-67.66 -704.35,110.52 -163.81,238.4 -292.74,327.91 -352.59,495.6z"/>
   <path class="fil3" d="M11214.21 17230.73c87.67,20.39 184.6,-34.47 260.67,-86.22 -50.37,-302.64 -155.02,-416.81 -101.86,-787.36 39.38,-274.46 91.66,-492.81 237.57,-670.34l-182.5 -13.24c-43.35,-58.79 -18.1,-24.74 -43.1,-106.62l-513.28 251.04c76.43,190.44 263.34,420.12 363.93,616.23 181.81,354.49 49.3,476.55 -21.43,796.51z"/>
   <path class="fil3" d="M16335.55 17610.07l178.78 -2.41c257.08,-526.1 149.75,-1271.17 94.3,-1864.62l-203.52 2.24c3.2,350.4 88.51,597.98 64.6,989.2 -18.37,300.44 -133.31,643.68 -134.16,875.59z"/>
   <path class="fil2" d="M7919.89 19046.25c290.84,152.32 281.82,-76.52 402.25,-205.59 108.78,-37.61 165.58,-0.45 260.34,-53.56 90.84,-50.91 68.09,-105.19 148.33,-203.47 333.45,-127.62 276.53,95.91 488.62,-289.29 251.1,2.23 365.43,105.61 425.48,-192.39 -459.72,43.67 -1047.04,379.57 -1418.69,610.82 -137.49,85.55 -326.52,146.44 -306.33,333.48z"/>
   <path class="fil1" d="M8586.73 14644.82c-40.18,-303.67 335.48,-338.55 457.53,-98.81 -68.68,236.36 -302.85,221.44 -457.53,98.81zm82.44 -369.65c-156.14,59.2 -409.24,163.41 -243.17,453.12 89.76,156.57 384.25,191.22 583.81,115.23 447.55,-170.41 180.5,-765.92 -340.64,-568.35z"/>
   <path class="fil1" d="M6710.38 13802.12c-322.09,197.17 -119.37,807.73 242.66,641.14 280.86,-129.23 144.46,-878.11 -242.66,-641.14z"/>
   <path class="fil1" d="M10453.57 13491.12c-137.86,85.29 -206.69,199.58 -138.88,440.13 45.03,159.77 182.15,304.4 377.1,195.57 270.71,-151.13 137.77,-868.31 -238.22,-635.7z"/>
   <path class="fil2" d="M11384.99 15566.95c25,81.88 -0.25,47.83 43.1,106.62l182.5 13.24c104.72,-175.72 169.45,-240.56 312.49,-365.6 142.23,-124.33 265.53,-171.03 384.72,-271.15 -23.52,-22.14 -34.66,28.42 -59.1,-87.47 -34.34,-162.79 -10.51,-40.75 20.4,-81.52 -143.09,-20.99 -176.87,-3.86 -252.94,74.23 -64.7,66.42 -120.31,142.8 -198.87,225.3 -158.57,166.52 -267.06,236.59 -432.3,386.35z"/>
   <path class="fil2" d="M9424.6 10944.91c-101.3,-29.59 -31.67,32.83 -82.29,-67.56 71.18,-76.25 -78.5,-57.49 124.18,-37.12l115.27 -119.79c47.89,-69.21 52.6,-77.64 73.82,-147.24 -199.8,-97.95 -317.5,-36.51 -394.43,109.21 -61.77,117.01 -110.66,354.26 125,407.33l38.45 -144.83z"/>
   <path class="fil4" d="M8586.73 14644.82c154.68,122.63 388.85,137.55 457.53,-98.81 -122.05,-239.74 -497.71,-204.86 -457.53,98.81z"/>
   <path class="fil2" d="M11151.92 11823.37c-109.18,-48.73 -94.88,3.67 -39.11,-105.31 174.31,-19.91 15.86,-16.44 84.88,60.39 70.68,-146.27 115.69,-343.64 -84.88,-401.35 -47.88,97.5 -48.74,169.14 -89.33,254.71 -50.26,105.94 -101.25,121.13 -106.87,252.39 140.43,43.8 150.52,46.69 235.31,-60.83z"/>
   <path class="fil0" d="M15346.95 18884.9c129.1,86.29 156.44,63.33 235.72,-35.28l-35.08 -163c-177.8,-36.25 -225.53,32.66 -200.64,198.28z"/>
   <path class="fil2" d="M9805.27 18108.84c171.93,117.55 283.7,71.73 330.8,-105.83 -0.5,-0.24 -13.75,-55.75 -195.48,-15.19 -176.96,39.49 -116.76,33.9 -135.32,121.02z"/>
   <path class="fil2" d="M7576.61 19202.38c-37.19,-133.76 -102.54,-114.49 -249.95,-115.43 47.37,111.47 98.83,187.59 249.95,115.43z"/>
   <path class="fil2" d="M7042.25 18955.45c-74.49,-121.51 -89.14,-100.09 -213.61,-159.07 -2.58,135.09 75.2,231.28 213.61,159.07z"/>
   <path class="fil5" d="M12307.8 15050.06c118.41,-29.54 72.06,3.1 142.15,-80.75l-180.85 -88.24c-30.91,40.77 -54.74,-81.27 -20.4,81.52 24.44,115.89 35.58,65.33 59.1,87.47z"/>
   <path class="fil6" d="M8910.5 10095.82l106.36 -7.15c18.11,-152.63 19.45,-106.3 -107.26,-142.04l0.9 149.19z"/>
   <path class="fil6" d="M8501.95 10454.05c48.71,134.21 20.97,144.83 137.92,35.27 -61.25,-126.21 -41.47,-100.39 -137.92,-35.27z"/>
   <path class="fil7" d="M8376.7 11072.51c-110.16,-111.73 -91.02,44.01 -98.42,100.6 55.93,-9.38 189.85,-7.85 98.42,-100.6z"/>
   <path class="fil7" d="M11744.55 11619.02c175.38,-16.23 98.28,45.88 118.9,-119.36 -163.96,20.52 -98.76,-54.5 -118.9,119.36z"/>
   <path class="fil7" d="M7813.2 18144.11c129.88,125.67 80.61,41.41 131.05,0 -55.6,-108.39 -113.76,-126.24 -131.05,0z"/>
   <path class="fil7" d="M9779.22 11343.42c49.99,37.28 -41.94,58.15 63.89,29.08 107.96,-29.64 29.3,17.88 64.08,-71.84 -111.98,-79.23 -103.92,-96.99 -127.97,42.76z"/>
   <path class="fil7" d="M11287.72 11124.28c18.51,14.97 -42.55,67.32 71.59,39.14 101.78,-25.13 34.85,1.91 65.34,-79.67 -168.73,-78.72 -96.01,-0.05 -136.93,40.53z"/>
   <path class="fil7" d="M7188.53 17383.74c-15.33,33.18 -89.52,-58.32 -17.66,75.9 37.73,70.46 -3.82,15.8 64.08,43.44 88.69,-124.84 81.05,-119.64 -46.42,-119.34z"/>
   <path class="fil7" d="M9913.44 10833.5l-134.79 -1.94c36.02,176.97 99.07,177.48 134.79,1.94z"/>
   <path class="fil7" d="M6919.26 17260.19c83.95,53.01 -8.86,48.59 120.01,19.45 4.87,-107.7 13.28,-87.08 -81.26,-109.18 -58.38,52.73 -21.85,-23.65 -38.75,89.73z"/>
   <path class="fil7" d="M8750.84 11620.09c114.42,-52.15 112.56,-14.5 35.3,-134.82 -57.56,23.61 -51.71,-22.77 -71.92,63.62 -32.11,137.31 -4.91,19.77 36.62,71.2z"/>
   <path class="fil7" d="M11571.11 10821.82c-27.53,44.12 -97.26,-59.33 -28.14,84.85 15.99,33.36 -43.99,53.95 54.5,27.57 169.23,-45.33 -1.29,-97.68 -26.36,-112.42z"/>
   <path class="fil7" d="M7869.51 17750.43c100.81,-55.85 83.77,-37.72 44.66,-136.2 -104.91,36.71 -167.88,-12.29 -44.66,136.2z"/>
   <path class="fil7" d="M8141.21 18294.91c-2.34,-18.65 -16.9,-16.41 -24.92,-25.02 -174.85,99.95 -54.84,116.6 58.03,140.62l-33.11 -115.6z"/>
   <path class="fil7" d="M11288.97 12007.64c40.09,78.3 -17.39,38.09 74.16,74.33l59.09 -42.64c-37.42,-117.88 -12.55,-71.14 -93.16,-90.21l-40.09 58.52z"/>
   <path class="fil7" d="M8501.42 17050.57c177.7,139.02 111.29,12.69 131.55,0 -43.42,-70.79 55.57,-55.26 -57.99,-59.41 -127,-4.64 -36.88,30.38 -73.56,59.41z"/>
   <path class="fil7" d="M8898.76 10489.32c65.5,51.17 17.22,83.22 125.53,0 -50.19,-124.66 -99.88,-148.13 -125.53,0z"/>
   <path class="fil7" d="M9233.61 17747.32c-43.92,-182.48 19.87,-86.37 -101.14,-131.63 -57.64,148.6 -46.57,94.92 101.14,131.63z"/>
   <path class="fil7" d="M8911.44 17488.9l105.89 12.06c-0.63,-123.56 20.05,-64.28 -54.97,-124.12 -80.67,51.35 -87.5,-15.81 -50.92,112.06z"/>
   <path class="fil7" d="M8925.58 17962.01c103.23,-26.17 92.66,-3.07 89.64,-120l-103.23 -0.27c-16.95,137.91 -23.08,53.49 13.59,120.27z"/>
   <path class="fil7" d="M9420.66 10093.08c69.22,-118.9 55.47,-85.84 -35.26,-133.08 -72.05,90.4 -115.57,87.95 35.26,133.08z"/>
   <path class="fil7" d="M8363.06 18196.81c1.65,-3.84 131.78,-27.96 -35.26,-128.84 -17.29,23.03 -82.73,-38.93 -34.15,75.81 37.4,88.35 -29.95,18.4 69.41,53.03z"/>
   <path class="fil7" d="M8545.63 11361.41c140.35,68.61 39.27,0.37 84.19,-25.48 -16.83,-28.9 -68.11,-192.18 -111.67,-28.05 -24.99,94.2 -4.69,37.8 27.48,53.53z"/>
   <path class="fil7" d="M7483.34 18571.1c13.89,-92.8 3.3,-18.13 -43.64,-61.05 -50.57,23.9 -44.73,-5.71 -57.59,59.53 -26,131.8 2.92,33.29 29.11,75.95 99.67,-49.54 54.18,45.38 72.12,-74.43z"/>
   <path class="fil7" d="M10352.55 11388.69c-21.25,-233.48 28.46,-91.23 -85.82,-129.58 -59,129.36 -42.44,95.95 85.82,129.58z"/>
   <path class="fil7" d="M8499.21 9975.85l33.63 123.56c90.31,-30.06 93.97,5 90.46,-117.47l-124.09 -6.09z"/>
   <path class="fil7" d="M11817.88 12072.86c76.03,-102.22 90.88,-80.2 -35.26,-125.91 -101.57,103.21 -50.66,89.72 35.26,125.91z"/>
   <path class="fil7" d="M8157.64 17503.33c4.51,-107.88 30.29,-48.75 -41.35,-124.13 -145.89,83.33 -116.12,102.87 41.35,124.13z"/>
   <path class="fil7" d="M8786.1 10334.89c84.73,-118.08 60.86,-78.25 -35.26,-127.65 -27.62,35.89 -63.55,-49.35 -35.38,70.05 21.41,90.75 3.05,36.74 70.64,57.6z"/>
   <path class="fil7" d="M10254.65 10952.8c98.37,-39.06 157.91,-6.64 47.34,-133.84 -97.6,46.29 -85.72,37.28 -47.34,133.84z"/>
   <path class="fil7" d="M11073.09 10912.63c139.37,69.43 96.24,35.39 125.4,-92.75 -246.08,49.12 -78.8,38.4 -125.4,92.75z"/>
   <path class="fil7" d="M8504.59 16551.87c27.77,107.36 -42.68,78.26 105.24,96.49 31.04,-107.78 -20.77,-157.71 -105.24,-96.49z"/>
   <path class="fil7" d="M8786.1 10731.15c60.09,-83.61 67.93,-31.79 3.89,-128.72 -129.55,52.49 -143.12,83.31 -3.89,128.72z"/>
   <path class="fil7" d="M8696.61 17226.95c55.09,105.61 63.12,125.61 128.69,0 -32.85,-26.61 -2.48,-122.42 -128.69,0z"/>
   <path class="fil7" d="M8116.29 17956.81c76.05,-74.91 46.3,-8.04 38.9,-124.27 -148.12,25.32 -182.06,48.54 -38.9,124.27z"/>
   <path class="fil7" d="M11571.11 12277.43c116.55,-51.18 87.63,-38.6 40.31,-126.94 -125.75,46.27 -138.41,18.32 -40.31,126.94z"/>
   <path class="fil7" d="M7889.62 18631.99l58.02 -48.87c-65.68,-63.31 80.22,-49.56 -128.18,-64.57 19.1,203.55 -33.7,87.69 70.16,113.44z"/>
   <path class="fil7" d="M7869.51 17301.79c43.41,-27.84 52.59,27.91 57.28,-53.1 7.64,-131.94 24.34,-25.41 -57.28,-76.96 -15.43,22.45 -126.3,-2.58 0,130.06z"/>
   <path class="fil7" d="M8327.8 16896.32c88,-44.59 106.66,-3.77 35.26,-119.83 -76.16,23.3 -171.37,4.13 -35.26,119.83z"/>
   <path class="fil7" d="M7657.99 17959.42c68.88,-40.96 135.36,-51.72 0,-128.81 -40.08,43.63 -127.54,19.81 0,128.81z"/>
   <path class="fil7" d="M8506.93 17845.36c15.9,79.97 -17.72,108.43 66.81,106.4 61.88,-1.49 51.7,-42.72 49.91,-103.7l-116.72 -2.7z"/>
   <path class="fil7" d="M8271.59 10665.7c49.81,97.36 62.95,118.57 128.95,0 -14.46,-12 7.49,-123.1 -128.95,0z"/>
   <path class="fil7" d="M11521.08 11335.93c24.13,14.53 -26.45,83.25 78.29,29.57 76.55,-39.23 30.43,23.28 36.1,-95.2 -221.58,-1.76 -63.04,19.79 -114.39,65.63z"/>
   <path class="fil7" d="M11813.35 11180.91c18.76,-19.51 131.27,-60.18 -30.73,-128.8 -30.91,44.18 -59.07,-57.25 -30.23,71.32 14.54,64.83 9.39,35.51 60.96,57.48z"/>
   <path class="fil7" d="M8524.66 17492.9c116.28,9.88 158.63,-2.82 49.92,-113.15 -14.14,7.12 -38,-9.06 -54.91,41.21 -48.7,144.76 -16.13,16.97 4.99,71.94z"/>
   <path class="fil7" d="M10515.72 11511.87c-101.99,12.47 -14.95,-17.74 -51.5,70.99 162.47,80.09 107.34,-0.77 128.33,-35.27 -52.88,-39.68 63.27,-52.85 -76.83,-35.72z"/>
   <path class="fil7" d="M11417.29 12464.75c-43.1,-90.49 -53.2,-133.09 -128.77,0 72.56,58.6 16.58,106.39 128.77,0z"/>
   <path class="fil7" d="M9023.07 11300.66c-75.65,-59.81 -19.74,-76.73 -122.79,0 20.21,23.94 46.71,210.49 122.79,0z"/>
   <path class="fil7" d="M8363.06 17298.42c71.41,-137.39 47.48,-73.79 -35.26,-122.13 -9.52,15.01 -162.82,58.51 35.26,122.13z"/>
   <path class="fil7" d="M7446.47 17742.04c95.22,-118.95 49.21,-85.35 -46.3,-129.17 -40.78,95.42 -63.63,89.3 46.3,129.17z"/>
   <path class="fil7" d="M9840.05 11836.3c79.57,-41.65 51,71.26 67.64,-77.06 -78.65,-65.84 -17.9,-85.62 -129.41,-3.84l61.77 80.9z"/>
   <path class="fil7" d="M7411.22 18195.57c80.38,-36.67 52.43,63.04 67.52,-53.26 12.15,-93.77 3.19,-27.57 -32.27,-79.02 -90.62,58.69 -108.58,28.47 -35.25,132.28z"/>
   <path class="fil7" d="M11964.69 11335.93c108.15,82.12 83.57,83 123.19,-35.27 -140.11,-106.21 -80.81,-7.88 -123.19,35.27z"/>
   <path class="fil7" d="M10725.03 12275.42c127.37,-34.49 130.89,-6.78 35.25,-122.71 -89.17,45.18 -94.74,22.95 -35.25,122.71z"/>
   <path class="fil7" d="M7726.8 18320.49c-104.42,-67.68 -82.52,-79.12 -127.15,35.28 118.01,83.88 79.29,61.94 127.15,-35.28z"/>
   <path class="fil7" d="M8756.96 11055.36c-118.68,6.19 -14.98,-10.25 -57.29,68.92 39.63,23.62 7.52,22.99 79.99,28.59 5.68,0.43 21.97,-1.35 26.27,-10.98 4.73,-10.61 17.19,-11.92 25.96,-17.61 -39.46,-79.79 43.41,-75.08 -74.93,-68.92z"/>
   <path class="fil7" d="M7411.22 17302.46c66.18,-27.95 52.67,49.72 66.15,-48.28 12.5,-90.94 5.28,-23.71 -30.9,-80.39 -79.13,48.17 -120.87,16.59 -35.25,128.67z"/>
   <path class="fil7" d="M8750.84 17744.03c95.05,-41.08 105.87,-7.33 35.26,-117.68 -87.24,30.05 -147.09,18.29 -35.26,117.68z"/>
   <path class="fil7" d="M10001.16 11124.28c44.03,27.77 -64.15,91.89 80.53,30.4 82.43,-35.03 15.64,11.24 47.78,-65.67 -150.42,-81.44 -67.44,-16.76 -128.31,35.27z"/>
   <path class="fil7" d="M11207.6 12217.82c-51.23,-81.46 13.79,-60.12 -118.46,-52.74l22.52 113.85c98.35,-24.98 43.52,18.48 95.94,-61.11z"/>
   <path class="fil6" d="M8284.9 10343.32l126.26 -12.06c-17.48,-161.55 11.67,-50.34 -59.9,-125.71l-66.36 137.77z"/>
   <path class="fil7" d="M8043.15 17015.29c26.32,60.91 -60.6,51.86 48.59,66.68 90.34,12.26 24.51,4.89 81.46,-31.4 -59.86,-92.7 -7.27,-101.11 -130.05,-35.28z"/>
   <path class="fil7" d="M10466.66 11089.01c35.46,82.5 -55.29,49.39 49.54,64.12 138.4,19.45 24.19,3.77 78.16,-28.85 -27.97,-45.82 13.05,-119.83 -127.7,-35.27z"/>
   <path class="fil7" d="M8327.8 17745.64c84.48,-41.51 96.16,-8.33 35.26,-118.12 -89.08,29.23 -153.51,10.99 -35.26,118.12z"/>
   <path class="fil7" d="M8962.36 10948.08c53.83,-86.8 74.56,-23.39 0,-131.79 -114.33,52.3 -106.51,78.76 0,131.79z"/>
   <path class="fil7" d="M10057.94 11516.43c-92.76,12.41 -15.48,-11.23 -54.91,66.43 37.81,18.95 2.93,34.3 77.35,22.52 110.68,-17.53 19.14,-0.55 53.06,-57.79 -58.09,-39.6 61.96,-49.57 -75.5,-31.16z"/>
   <path class="fil7" d="M9150.56 11518.77c-96,14.15 -21.7,7 -44.61,64.09 148.04,85.14 76.67,45.98 125.38,-35.27 -63.09,-37.48 12.86,-42.63 -80.77,-28.82z"/>
   <path class="fil7" d="M7599.47 17502.88c146.33,-36.7 53,0.49 124.94,-64.28 -95.04,-123.86 -94.64,-79.85 -124.94,64.28z"/>
   <path class="fil7" d="M8504.64 10877.35c74.02,119.17 81.11,79.57 125.99,0 -112.64,-110.6 -57.85,-56.02 -125.99,0z"/>
   <path class="fil7" d="M10334.35 11761.2c-14.01,-102.08 16.78,-14.62 -67.62,-50.2 -66.8,99.13 -47.35,69.93 35.26,122.85 37.51,-50.77 51.95,70.07 32.36,-72.65z"/>
   <path class="fil7" d="M9173.88 10335.3c18.72,-19.12 48.04,40.72 38.01,-60.17 -8.36,-84.03 3.2,-19.73 -38.01,-68.52 -108.15,74.31 -81.46,79.42 0,128.69z"/>
   <path class="fil7" d="M10138.96 10624.24l-131.95 28.97c43.77,128.52 -56.78,49.84 98.01,84.5l33.94 -113.47z"/>
   <path class="fil7" d="M9453.4 9537.93l-115.57 -27.13c32.87,197.46 -16.93,91.34 82.83,123.12l32.74 -95.99z"/>
   <path class="fil7" d="M8750.84 9882.94c133.37,-72.13 86.46,-61.56 0,-114.72 -3.6,6.21 -124.26,-28.96 0,114.72z"/>
   <path class="fil7" d="M9424.6 10944.91l41.89 -104.68c-202.68,-20.37 -53,-39.13 -124.18,37.12 50.62,100.39 -19.01,37.97 82.29,67.56z"/>
   <path class="fil7" d="M9173.88 9875.42c146.46,-161.86 8.04,-99.95 0,-113.6 -82.26,68.65 -115.79,55.84 0,113.6z"/>
   <path class="fil7" d="M12099.07 11816.26l-1.11 -24.97c-27.53,-102.4 24.69,-29.84 -68.56,-88.85l-76.16 83.79 145.83 30.03z"/>
   <path class="fil7" d="M11518.13 11759.24c69.34,109.28 50.51,134.12 127.85,0 -67.27,-50.32 102.75,-42.64 -48.27,-30.05 -77.78,6.48 -23.79,-4.64 -79.58,30.05z"/>
   <path class="fil7" d="M10760.28 11386.85c71.3,-97.08 51.07,130.7 34.13,-54.68 -7.88,-86.2 4.97,-25.67 -34.13,-79.54 -88.63,64.68 -126.14,61.77 0,134.22z"/>
   <path class="fil7" d="M11151.92 11823.37l45.77 -44.92c-69.02,-76.83 89.43,-80.3 -84.88,-60.39 -55.77,108.98 -70.07,56.58 39.11,105.31z"/>
   <path class="fil6" d="M10804.98 10949.24c-35.66,-119.61 5.97,-55.23 -77.24,-116.17 -53.12,41 -56.39,-82.13 -37.22,79.56l114.46 36.61z"/>
   <path class="fil7" d="M11016.92 12464.75c-84.13,-120.68 -59.26,-108.38 -124.53,0 57.28,37.74 45.52,53.94 124.53,0z"/>
   <path class="fil7" d="M9781.33 9989.24c27.17,100.9 1.76,74.55 96.59,109.94l3.33 -109.19 -99.92 -0.75z"/>
   <path class="fil7" d="M9550.09 10277.67c80.44,55.37 70.01,39.78 132.53,0 -95.58,-142.15 -62.75,-52.85 -132.53,0z"/>
   <path class="fil7" d="M9606.02 11064.78l-25.08 115.31c93.55,-42.94 65.19,27.73 84.48,-59.61 23.89,-108.21 -16.13,-42.68 -59.4,-55.7z"/>
   <path class="fil6" d="M8899.79 9577.2c34.49,86.48 -8.82,49.64 97.83,61.9l10.01 -100.24 -107.84 38.34z"/>
   <path class="fil7" d="M9552.61 17685.53c78.49,66.82 -108.36,51.86 50.23,35.99 90.84,-9.1 13.21,16.55 78.19,-35.99 -99.71,-84.94 128.45,-56.85 -52.08,-37.75 -90.6,9.59 -17.93,-11.06 -76.34,37.75z"/>
   <path class="fil7" d="M9557.76 9819.09c69.86,60.73 -106.76,49.34 46.23,33.75 85.13,-8.67 12.68,15.16 72.19,-33.75 -85.78,-67.45 128.04,-49.41 -48.2,-32.16 -79.5,7.78 -18.31,-8.34 -70.22,32.16z"/>
  </g>
 </g>
</svg>
