<?xml version="1.0" encoding="UTF-8"?>
<!DOCTYPE svg PUBLIC "-//W3C//DTD SVG 1.1//EN" "http://www.w3.org/Graphics/SVG/1.1/DTD/svg11.dtd">
<!-- Creator: CorelDRAW -->
<svg xmlns="http://www.w3.org/2000/svg" xml:space="preserve" width="124.877mm" height="93.1797mm" version="1.1" style="shape-rendering:geometricPrecision; text-rendering:geometricPrecision; image-rendering:optimizeQuality; fill-rule:evenodd; clip-rule:evenodd"
viewBox="0 0 12473.42 9307.34"
 xmlns:xlink="http://www.w3.org/1999/xlink"
 xmlns:xodm="http://www.corel.com/coreldraw/odm/2003">
 <defs>
  <style type="text/css">
   <![CDATA[
    .fil0 {fill:#251E21}
    .fil3 {fill:#A2D2EE}
    .fil5 {fill:#B8365A}
    .fil1 {fill:#EB174F}
    .fil4 {fill:#F4B9D3}
    .fil2 {fill:#FDFDFD}
   ]]>
  </style>
 </defs>
 <g id="Layer_x0020_1">
  <metadata id="CorelCorpID_0Corel-Layer"/>
  <g id="_2647466115520">
   <g>
    <path class="fil0" d="M1528.49 8479.58c-3.44,382.34 54.08,317.42 155.4,585.58 -267.3,7.59 -629.17,31.68 -683.16,-228.43 -63.55,-306.22 283.56,-359.24 527.76,-357.15zm1555.63 19.43c26.46,-203.9 119.59,-426.03 194.21,-625.25 55.95,-149.36 31.22,-166.15 192.96,-191.07 203.58,-31.38 243.24,-18.88 278.32,141.6 49.13,224.72 151.19,465.05 -34.04,629.02 -162,143.4 -421.58,116.45 -631.45,45.7zm881.27 -568.84c345.94,-292.51 799.69,89.52 832.29,467 42.62,493.59 -285.35,687.09 -762.05,666.99 -12.68,-204.83 -22.39,-402.58 -35.11,-607.47l-35.13 -526.52zm-1058.51 448.03c-147.58,-50.33 -303.15,-201.7 -360.1,-375.12 -134.12,-408.41 417.63,-524.63 587.7,-406.85 81.25,56.27 18.86,152.46 -21.62,256.6 -55.22,142.06 -127.13,415.83 -205.98,525.37zm681.94 -1073.02l40.47 214.55c-192.14,13.73 -310.89,-40.71 -325.99,-216.96l285.51 2.41zm237.45 1287.11c33.58,168.35 57.47,284.01 20.13,484.73 -154.06,54.36 -703.81,39.27 -939.52,39.16 -1049.06,-0.46 -1543.12,-190.07 -955.93,-1227.01 139.16,-245.75 178.51,-331.19 285.56,-619.87 175.36,-23.43 336.51,14.98 494.79,22.91 210.94,10.58 326.13,-45.68 404.79,107.46 -152.36,63.84 -419.27,-104.24 -646,182.68 -164.74,208.47 -127.63,483.25 15.03,676.5 136.51,184.92 319.28,296.22 539.24,380.99 474.93,183.02 658.15,-14.7 781.9,-47.55zm486.13 -1431.86c-68.89,137.32 -351,416.42 -465.62,459.66l-72.78 -328.18 538.4 -131.48zm1107.2 -1630.3l241.41 -0.04c-48.17,140.36 -129.66,295.81 -276.43,379.11l35.02 -379.07zm3413.93 -936.58c-164.03,-37.22 -235.39,-84.59 -260.05,-244.01l217.08 -1.96c68.73,96.65 67.61,117.22 42.97,245.97zm-2720.95 -188.07c92.47,-183.33 324.64,-145.82 313.98,142.52 -173.37,27.67 -254.63,-40.89 -313.98,-142.52zm-1567.98 -19.35c-39.03,-122.14 -24.09,-145.32 55.82,-219.02 154.05,74.87 142.5,240.22 -55.82,219.02zm-636.59 -609.08c478.88,-260.43 715.98,468.91 323.75,648.27 -446.4,204.13 -755.5,-413.48 -323.75,-648.27zm4608.63 875.01c-91.07,166.76 -277.47,380.2 -388.65,528.01 -700.71,931.62 -1466.22,1605.41 -2581.45,2037.71 -367.59,142.5 -1065.33,417.59 -1467.44,446.18 79.43,-170.78 984.57,-1012.09 1031.66,-1026.19 206.93,-61.89 315.25,193.82 523.12,92.6 -49.59,-180.12 -108.55,-113.92 -400.67,-273.72 123.46,-459.41 447.98,-312.24 564.06,-395.57 -87.47,-97.67 -60.71,-44.68 -198.58,-105.68 21.28,-120.37 165.55,-319.64 254.68,-406.92 156.39,-153.1 37.29,4.88 103.43,-210.28l209.54 -459.28c72,-160.45 38.67,-148.8 169.48,-175.97 136.11,-28.27 165.44,24.24 208.54,-123.66 22.66,-77.79 8.81,-233.77 17.89,-328.42 354.23,-95.15 604.31,-126.55 925.72,-273.25 241.6,-110.28 577.61,-362.03 822.21,-430.05 69.49,233.9 238.54,388.96 324.93,611.3 -77.65,100.56 -167.91,85.03 -202.04,195.36 -33.32,107.73 60.49,159.06 83.57,297.81zm-3371.75 -789.05c224.57,183.66 -65.73,719.14 -177.97,837.57 -254.03,268.08 -555.38,111.11 -631.09,-173.85 192.48,-88.84 196.88,97.49 380.46,-38.82 117.51,-87.24 150.35,-290.8 19.52,-393.45 -46.18,-36.23 -402.18,-183.34 -55.93,-271.59 106.99,-27.27 401.46,-11.83 465.01,40.13zm-4109.35 436.79c-101.8,-50.02 -316.73,-58.72 -153.43,-615.63 185,-630.91 805.23,-47.07 1109.56,-17.49 248.43,24.13 492.88,-105.51 798.29,-27.09 -117.22,1325.87 707.7,691.4 918.52,810.69 76.68,43.39 87.46,96.21 214.74,132.91 119.16,34.37 159.46,8.24 289.09,40.62 106.58,163.7 162.15,298.36 360.98,341.92 244.34,53.53 347.71,-102.49 521.07,-136.12 72.03,159.17 143.22,343.33 140.97,553.73 -172.05,46.5 -270.22,24.78 -310.48,149.36 98.55,55.29 189.71,23.62 325.61,22.55l-33.07 315.56 -119.76 47.04c-7.19,3.08 -20.08,9.1 -25.98,11.69l-52.26 25.87c81.61,131.53 55.95,11.53 141.91,144.13l-114.82 269 -231.86 14c30.57,207.25 59.12,-1.68 65.37,206.93 -554.02,490.15 -962.23,544.6 -1796.7,543.1 -668.96,-1.2 -1433.11,-117.48 -1874.16,-472.65 40.24,-161.99 82.49,-43.13 94.5,-211.36l-309.55 39.24 -130.4 -250.58c102.24,-116.05 109.11,-17.77 165.22,-140.91 -107.14,-54.64 -66.51,-9.42 -137.25,-23.31 -146.22,-28.74 -197.35,-76.56 -175.88,-369.89l276.41 -29.51c-50.76,-135.31 -164.17,-80.87 -306.67,-140.9 -77.17,-567.26 319.26,-1006.51 350.02,-1232.9zm2466.33 -319.19c-101.23,-176.26 -50.15,-305.64 184.36,-281.62 -10.41,147.85 -29.26,259.08 -184.36,281.62zm574.77 -455.78c89.05,-160.71 558.6,-285.83 812.58,-249.14 69.99,145.6 95.14,179.88 90.14,392 -67.31,13.9 -496.92,69.22 -514.54,66.35 -60.64,-9.9 -347.44,-162.36 -388.18,-209.22zm-478.32 704.52c-156.8,215.23 -789.85,214.31 -709.22,-372.58 44.49,-323.85 263.16,-776.86 548.25,-799.57 213.48,-17 330.1,134.42 411.77,266.48 391.3,632.7 -506.19,-101.8 -515.91,518.58 -4.96,316.84 203.79,195.74 265.11,387.1zm-1143.87 -1051.78c9.98,-173.24 71,-169.35 207.13,-116.81 -28.3,108.02 72.57,48.15 -77.7,108.28 -32.3,12.93 -96.7,7.37 -129.43,8.53zm4478.56 -2054.56c201.45,-7.73 394.21,-323.88 699.5,-420.22 787.81,-248.62 1775.77,452.59 1377.77,1627.04 -245.45,724.29 -1016.8,1299.22 -1714.09,1561.48 -160.44,60.34 -695.22,225.75 -859.36,213.25 -254.35,-19.39 -1066.95,-839.04 -1199.15,-1004.4 -918.85,-1149.37 -721.73,-2783.96 384.24,-2867.44 902.79,-68.14 1077.23,446.23 1311.09,890.29zm-5415.36 -109.48c0,0 0,0 0,0l0 0zm8830.07 -127.23c132.4,249.41 111.08,453.19 141.56,773.5 372.82,-11.38 516.64,-272.63 1029.71,-75.65 998.66,383.39 1039.13,1494.83 210.7,2189.99 -420.08,352.51 -1103.17,566.77 -1837.95,553.98 -269.22,-4.69 -840.36,-37.56 -1021.63,-168.11 -117.39,-84.53 -407.8,-574.92 -443.21,-740.83 102.51,-130.79 170.15,-160.24 270.1,-277.85 453.53,-533.6 765.4,-1306.26 393.97,-1987.22 -234.79,-430.45 -453.65,-392.53 -550.48,-552.99 376.04,-501.55 1406.44,-469.78 1807.24,285.19zm-7692.94 2004.48c176.08,-307.24 393.6,-466.61 565.03,-1033.1 598.61,-1978.15 -1548.69,-2480.56 -1787.21,-1000.42 -524.31,-107.73 -828.18,-150.14 -1159.35,215.17 -247.78,273.34 -264.12,776.09 -77.42,1108.17 351.2,624.71 1119.12,927.08 2111.25,865.6 6.59,9.01 10.61,22.46 14.28,30.31 3.6,7.68 9.5,20.51 13.89,29.72 4.72,9.88 19.82,45.83 25.46,55.98l27.14 46.65c112.13,139.15 124.48,-26.66 160.92,184.97 -451.15,167.16 -605.11,41.79 -973.69,-90.18 -1247.51,-446.68 -802.14,1066.5 -855.14,1270.03 -25.02,96.06 -133.65,289.71 -176.99,432.66 -44.54,146.95 -7.32,410.43 -83.38,511.81 -143.15,129.82 -436.34,0.01 -459.59,206.35 284.65,39.58 608.56,-191.02 570.55,404.77 -327.1,96.09 -271.59,104.45 -317.21,207.81 422.75,-39.57 410.89,-87.26 513.2,98.94 53.12,96.69 49.17,80.89 57.09,193.16 -149.48,115.76 -338.85,119.02 -357.5,349.92 206.38,-26.36 234.12,-138.86 400.8,-209.78 159.5,-67.86 231.05,53.94 354.91,129.69 234.94,143.67 634.01,205.38 805.37,324.54 7.72,301.87 -260.6,583.57 -373.36,827.66 -121.11,262.18 -35.98,200.55 -334.59,265.6 -799.39,174.13 -554.16,789.01 -120.81,894.85 312.6,76.35 757.68,34.49 1105.6,66.41 470.86,43.19 1826.96,54.95 2225.83,-81.22 268.8,-91.77 456.63,-345.8 464.11,-704.65 8.27,-396.67 -141.58,-521.05 -345.07,-719.22l-52.85 -56.28c122.21,-90.85 1064.1,-414.85 1272.32,-493.92 1246.65,-473.38 1982.58,-1499.07 2789.47,-2485.12 339.98,-9.4 294.62,10.89 358.26,-324.41 216.41,-24.06 701.48,84.31 1017.78,80.04 1965.15,-26.56 2976.51,-1622.81 2149.47,-2622.22 -597.87,-722.46 -1195.56,-446.15 -1547.58,-426.74 -53.78,-976.94 -897.69,-1509.36 -1607.68,-1319.38 -207.12,55.42 -356.64,142.03 -490.37,250.78 -299.21,243.34 -61.4,173.51 -485.34,126.58 -558.82,-61.86 -867.12,311.35 -1055.87,383.46 -481.26,-1191.09 -2312.23,-1134.46 -2495.54,422.32 -79.26,673.06 214.17,1320.4 511.23,1735.9 631.28,882.94 916.6,868.84 1141.36,1114.91 -70.81,163.23 -109.96,55.2 -181.65,246.59 45.36,213.52 153.47,122.54 121.59,295.55 -6.31,34.3 -111.27,262.51 -137.03,319.16 -140.68,309.39 -133.67,375.18 -549.89,344.47 -28.75,-220.09 -214.45,-679.89 -170.63,-818.78 194.07,-615.2 166.67,-468.33 -29.91,-815.17 -126.86,-223.82 -12.41,-638.55 -394.88,-654.45 -302.89,-12.6 -548.88,149.9 -810.54,204.45 -161.85,-152.56 -353.77,-510.74 -718.34,-332.67 -315.25,153.97 -293.2,552.13 -621.55,435.89 -37.54,-276.46 60.26,-48.31 96.1,-253.01 16.87,-96.38 -60.54,-139.48 -102.05,-240.15z"/>
   </g>
   <path class="fil1" d="M6933.01 1123c-233.86,-444.06 -408.3,-958.44 -1311.09,-890.29 -1105.97,83.47 -1303.09,1718.07 -384.24,2867.44 132.2,165.36 944.8,985.02 1199.15,1004.4 164.14,12.51 698.92,-152.91 859.36,-213.25 697.29,-262.26 1468.64,-837.18 1714.09,-1561.48 398.01,-1174.45 -589.96,-1875.66 -1377.77,-1627.04 -305.29,96.34 -498.05,412.49 -699.5,420.22z"/>
   <path class="fil2" d="M2699.62 6313.77c1.42,-425.34 488.41,-271.66 542.2,-135.48 85.67,216.94 -291.84,461.67 -542.2,135.48zm-914.42 -707.81c179.62,198.09 129.43,567.23 -135.83,454.54 -131.38,-55.81 -206.38,-442.98 135.83,-454.54zm2471.08 25.77c72.48,170.56 97.01,603.92 -197.52,416.24 -126.15,-80.38 -177.66,-454.96 197.52,-416.24zm-3220.73 -1331.94c-30.76,226.39 -427.19,665.64 -350.02,1232.9 142.5,60.03 255.91,5.59 306.67,140.9l-276.41 29.51c-21.48,293.33 29.66,341.15 175.88,369.89 70.74,13.89 30.12,-31.32 137.25,23.31 -56.12,123.14 -62.98,24.86 -165.22,140.91l130.4 250.58 309.55 -39.24c-12.02,168.23 -54.26,49.37 -94.5,211.36 441.05,355.17 1205.2,471.45 1874.16,472.65 834.47,1.5 1242.68,-52.95 1796.7,-543.1 -6.24,-208.61 -34.8,0.32 -65.37,-206.93l231.86 -14 114.82 -269c-85.96,-132.6 -60.3,-12.6 -141.91,-144.13l52.26 -25.87c5.9,-2.59 18.79,-8.61 25.98,-11.69l119.76 -47.04 33.07 -315.56c-135.89,1.07 -227.06,32.73 -325.61,-22.55 40.25,-124.58 138.42,-102.86 310.48,-149.36 2.25,-210.4 -68.94,-394.56 -140.97,-553.73 -173.36,33.63 -276.73,189.65 -521.07,136.12 -198.82,-43.56 -254.4,-178.22 -360.98,-341.92 -129.63,-32.38 -169.93,-6.25 -289.09,-40.62 -127.28,-36.7 -138.06,-89.52 -214.74,-132.91 -210.82,-119.29 -1035.74,515.17 -918.52,-810.69 -305.41,-78.42 -549.86,51.22 -798.29,27.09 -304.33,-29.58 -924.56,-613.42 -1109.56,17.49 -163.29,556.9 51.63,565.6 153.43,615.63z"/>
   <path class="fil3" d="M8540.49 601.08c96.83,160.46 315.69,122.54 550.48,552.99 371.43,680.96 59.56,1453.62 -393.97,1987.22 -99.96,117.62 -167.59,147.06 -270.1,277.85 35.41,165.91 325.83,656.3 443.21,740.83 181.27,130.55 752.41,163.41 1021.63,168.11 734.78,12.8 1417.87,-201.47 1837.95,-553.98 828.43,-695.16 787.96,-1806.6 -210.7,-2189.99 -513.07,-196.98 -656.89,64.28 -1029.71,75.65 -30.48,-320.3 -9.16,-524.09 -141.56,-773.5 -400.79,-754.98 -1431.2,-786.74 -1807.24,-285.19z"/>
   <path class="fil1" d="M3826.28 8592.28c-123.75,32.84 -306.97,230.57 -781.9,47.55 -219.97,-84.77 -402.73,-196.08 -539.24,-380.99 -142.67,-193.25 -179.77,-468.03 -15.03,-676.5 226.73,-286.92 493.65,-118.84 646,-182.68 -78.66,-153.14 -193.85,-96.88 -404.79,-107.46 -158.29,-7.93 -319.44,-46.35 -494.79,-22.91 -107.06,288.68 -146.4,374.12 -285.56,619.87 -587.19,1036.94 -93.13,1226.55 955.93,1227.01 235.71,0.11 785.45,15.2 939.52,-39.16 37.35,-200.72 13.45,-316.38 -20.13,-484.73z"/>
   <path class="fil2" d="M4035.64 9064.15c476.7,20.1 804.67,-173.4 762.05,-666.99 -32.6,-377.48 -486.34,-759.5 -832.29,-467l35.13 526.52c12.72,204.89 22.43,402.64 35.11,607.47z"/>
   <path class="fil1" d="M3598.33 4229.34c-61.32,-191.36 -270.07,-70.26 -265.11,-387.1 9.72,-620.38 907.21,114.12 515.91,-518.58 -81.67,-132.06 -198.29,-283.48 -411.77,-266.48 -285.09,22.7 -503.76,475.72 -548.25,799.57 -80.63,586.89 552.42,587.82 709.22,372.58z"/>
   <path class="fil1" d="M4335.84 4526.72c75.71,284.96 377.06,441.94 631.09,173.85 112.23,-118.43 402.54,-653.91 177.97,-837.57 -63.55,-51.96 -358.02,-67.4 -465.01,-40.13 -346.25,88.25 9.75,235.36 55.93,271.59 130.83,102.65 97.99,306.21 -19.52,393.45 -183.58,136.3 -187.98,-50.02 -380.46,38.82z"/>
   <path class="fil2" d="M3084.13 8499c209.87,70.75 469.45,97.7 631.45,-45.7 185.23,-163.97 83.18,-404.3 34.04,-629.02 -35.08,-160.48 -74.74,-172.98 -278.32,-141.6 -161.74,24.92 -137.01,41.71 -192.96,191.07 -74.61,199.21 -167.75,421.35 -194.21,625.25z"/>
   <path class="fil1" d="M3908.02 3777.04c-431.75,234.79 -122.65,852.4 323.75,648.27 392.23,-179.36 155.13,-908.7 -323.75,-648.27z"/>
   <path class="fil4" d="M2906.89 8378.19c78.85,-109.54 150.77,-383.31 205.98,-525.37 40.47,-104.14 102.86,-200.33 21.62,-256.6 -170.07,-117.79 -721.82,-1.57 -587.7,406.85 56.94,173.42 212.52,324.79 360.1,375.12z"/>
   <path class="fil2" d="M4076.65 3524.82c40.73,46.86 327.54,199.32 388.18,209.22 17.62,2.87 447.23,-52.45 514.54,-66.35 5,-212.12 -20.15,-246.4 -90.14,-392 -253.98,-36.7 -723.53,88.43 -812.58,249.14z"/>
   <path class="fil2" d="M1528.49 8479.58c-244.2,-2.09 -591.3,50.93 -527.76,357.15 53.99,260.11 415.86,236.02 683.16,228.43 -101.32,-268.16 -158.84,-203.24 -155.4,-585.58z"/>
   <path class="fil0" d="M3112.27 6333.41c-90.58,18.16 -405.9,20.74 -276.93,-133.04 74.58,-88.94 292.92,-113.7 276.93,133.04zm-412.65 -19.64c250.36,326.2 627.87,81.47 542.2,-135.48 -53.79,-136.18 -540.78,-289.87 -542.2,135.48z"/>
   <path class="fil0" d="M1785.2 5605.96c-342.22,11.56 -267.21,398.73 -135.83,454.54 265.27,112.69 315.46,-256.45 135.83,-454.54z"/>
   <path class="fil0" d="M4256.28 5631.73c-375.18,-38.72 -323.67,335.87 -197.52,416.24 294.53,187.68 270,-245.69 197.52,-416.24z"/>
   <path class="fil5" d="M6112.59 4405.47c59.35,101.62 140.61,170.19 313.98,142.52 10.66,-288.34 -221.51,-325.85 -313.98,-142.52z"/>
   <path class="fil4" d="M3629.31 7519.72l-40.47 -214.55 -285.51 -2.41c15.09,176.25 133.85,230.7 325.99,216.96z"/>
   <path class="fil4" d="M3112.27 6333.41c15.98,-246.74 -202.35,-221.98 -276.93,-133.04 -128.96,153.77 186.36,151.2 276.93,133.04z"/>
   <path class="fil5" d="M3501.88 3980.6c155.1,-22.53 173.95,-133.77 184.36,-281.62 -234.51,-24.02 -285.59,105.36 -184.36,281.62z"/>
   <path class="fil3" d="M8573.49 4349.52c24.66,159.42 96.02,206.79 260.05,244.01 24.64,-128.75 25.76,-149.32 -42.97,-245.97l-217.08 1.96z"/>
   <path class="fil5" d="M4544.61 4386.12c198.31,21.2 209.87,-144.15 55.82,-219.02 -79.91,73.7 -94.84,96.88 -55.82,219.02z"/>
   <path class="fil4" d="M2454.46 3177.56c32.73,-1.16 97.13,4.39 129.43,-8.53 150.27,-60.13 49.4,-0.26 77.7,-108.28 -136.13,-52.54 -197.15,-56.44 -207.13,116.81z"/>
   <path class="fil4" d="M1517.66 1013.51c0,0 0,0 0,0z"/>
   <path class="fil4" d="M1492.73 1055.17c-316.12,-124.26 -632.89,-310.94 -1065.07,124.11 -529.44,532.96 92.4,1459.24 1071.16,1641.94 140.82,26.28 919.38,86.84 1058.2,-15.93 89.59,-66.32 290.3,-388.22 345.78,-490.28 241.11,-443.61 381.89,-1080.52 187.32,-1561.02 -315.5,-779.15 -1131.49,-701.2 -1424.98,-224.47 -113.74,184.74 -72.66,432.42 -172.39,525.66z"/>
  </g>
 </g>
</svg>
