<?xml version="1.0" encoding="UTF-8"?>
<!DOCTYPE svg PUBLIC "-//W3C//DTD SVG 1.1//EN" "http://www.w3.org/Graphics/SVG/1.1/DTD/svg11.dtd">
<!-- Creator: CorelDRAW -->
<svg xmlns="http://www.w3.org/2000/svg" xml:space="preserve" width="88.5818mm" height="93.7401mm" version="1.1" style="shape-rendering:geometricPrecision; text-rendering:geometricPrecision; image-rendering:optimizeQuality; fill-rule:evenodd; clip-rule:evenodd"
viewBox="0 0 8843.94 9358.94"
 xmlns:xlink="http://www.w3.org/1999/xlink"
 xmlns:xodm="http://www.corel.com/coreldraw/odm/2003">
 <defs>
  <style type="text/css">
   <![CDATA[
    .fil1 {fill:#070606}
    .fil2 {fill:#EE429D}
    .fil3 {fill:#F4DD30}
    .fil0 {fill:#FDFDFD}
   ]]>
  </style>
 </defs>
 <g id="Layer_x0020_1">
  <metadata id="CorelCorpID_0Corel-Layer"/>
  <g id="_2647488761248">
   <path class="fil0" d="M4024.4 4718.43c-51.58,-427.45 726.7,-471.54 807.59,-98.31 105.04,484.63 -764.93,451.88 -807.59,98.31zm1910.07 -493.19c-129.14,-501.16 414.64,-632.21 487.63,-244.1 94.21,501.03 -391.77,616.11 -487.63,244.1zm-3610.7 0c-106.55,-471.32 394.59,-671.73 494.36,-271.17 130.1,522.34 -414.27,625.52 -494.36,271.17zm-1289.31 -574.07c199.68,101.68 423.18,-10.22 466.44,186.56 -114.61,71.34 -292.46,30.17 -431.74,48.92 -20.71,124.99 1.2,342.73 60.91,442.05 121.25,201.73 215.64,20.07 412.5,107.91 -18.28,142.83 -89.16,115.9 -251.99,162.26 24.33,222.2 124.8,309.14 222.7,429.6 266.59,27.86 258.47,-121.77 457.77,-31.96 -33.12,171.87 -60.79,76.41 -185.94,215.11 97.57,212.59 603.17,396.84 873.5,475.63 209.31,61 968.71,262.8 1170.66,187.95 370.47,-137.31 250.23,-674.14 807.65,-538.19 241.23,58.84 211.2,223.06 354.51,310.77 70.96,43.43 180.65,62.97 245.41,109.77 134.82,97.42 102.13,319.4 666.1,69.02 212.64,-94.4 229.52,-437.27 688.77,-587.59 244.71,-80.1 324.81,30.53 460.29,114.72 110.43,-59.01 189.73,-132.38 256.22,-247.76 -83.06,-190.83 -130.73,-25.15 -140.93,-236.41 103.87,-19.93 460.76,131.39 513.23,-468.15 -160.75,-128.66 -165.31,17.81 -209.47,-188.41l278.88 -40.22c53.23,-184.63 63.51,-306.3 44.65,-511.4 -168.19,-14.84 -342,49.53 -478.96,-12.79 26.93,-179.11 288.6,-138.21 469.42,-233.56 19.81,-176.25 -55.05,-486.51 -122.26,-649.22 -78.15,-189.21 -313.68,-183.37 -536.59,-253.58 88.25,314.3 607.64,703.33 209.13,723.37 -164.03,8.25 -236.56,-65.39 -471.39,60.53 -755.73,405.25 -740.37,-371.42 -778.25,-1214.59 -222.19,135.82 -652.8,911.16 -853.2,999.81 -395.93,175.13 -458.91,-314.96 -773.67,-563.63 -126.54,-99.96 -221.01,-79.77 -270.24,-229.97 90.67,-130.04 359.26,-150.96 528.87,-251.19 -173.49,-125.43 -520.54,-127.5 -499.33,-486.94 20.71,-350.91 343.61,-366.35 332.05,-684.49 -509.72,-5.92 -851.37,-31.81 -1360.53,71.38 -601.25,121.85 -1543.35,-1008.01 -1877.9,61.39 -48.52,155.1 -98.77,651.11 8.02,781.29 75.35,91.86 6.24,18.1 157.2,56.08 147.97,37.23 150.29,7.45 -91.74,393.61 -161.45,257.6 -466.78,1048.36 -350.74,1422.33z"/>
   <g>
    <path class="fil1" d="M2390.17 8100.31c-158.34,397.38 -55.54,545.76 413.25,540.68l-22.9 129.52c-135.66,60.56 -509.3,-7.67 -656.57,-41.95 -714.96,-166.42 -808.95,-1237.31 -326.88,-1487.41l351.52 225.06c-34.96,67.89 3.05,-7.69 -40.31,64.23 -68.75,114.07 -104.03,196.55 -48.63,339.46 65.38,168.7 202.7,146.58 330.52,230.41zm2935.9 -1612.98l425.82 -71.15c110.88,91.82 299.15,695.25 495,1042.22 222.84,394.77 550.89,714.25 628.45,888.73 -562.49,249.36 -455.79,310.39 -1261.93,466.32 -430.89,83.35 -1173.64,145.58 -1652.68,83.16 -584.42,-76.16 -894.21,-258.85 -1155.99,-605.31 -184.38,-244.02 -488.96,-863.93 -496.16,-1233.73 239.62,-52.74 440.25,72.22 679.72,-91.36 156.53,-106.93 186.78,-265.69 325.28,-449.94 526.42,-36.48 249.72,26.21 569.17,700.16 479.41,1011.4 1309.81,657.55 1494.79,302.8 218.74,-419.48 -13.66,-665.13 -51.48,-1031.91zm1337.97 795.52c-127.91,-104.94 -440.49,-629.38 -498.85,-808.74 346.49,44.08 665.28,188.38 962.21,283.24 -34.98,146.75 -9.85,57.69 -98.9,156.56 -193.53,214.88 -139.52,337.58 -364.46,368.94zm-740.63 -885.81c-161.31,-106.08 -202.12,-307.56 -35.26,-438.99 128.33,16.23 195.11,72.19 215.46,207.7 28.3,188.41 -29.67,219.65 -180.2,231.3zm-587.79 -100.95c42.81,-167.98 205.73,-173.09 323.92,-98.08 -19.37,32.65 27.72,125.97 -323.92,98.08zm-1640.42 -178.27l-41.69 244.61c-219.82,5.62 -556.73,-17.63 -486.61,-270.1l528.3 25.49zm1092.62 -270.33c356.75,30.47 441.85,123.84 290.95,425.23 -78.01,155.8 97.27,444.5 135.36,632.44 122.19,602.9 -347.89,958.1 -780.11,673.72 -258.27,-169.92 -535.57,-651.51 -551.04,-1099.71 -11.18,-324.17 72.34,-425.02 270.34,-570.15 265.46,-194.57 24.62,-408.23 479.64,-346.04 91.72,124.88 104.36,117.42 154.86,284.52zm1345.9 110.55c-109.52,-294.44 888.8,-1130.13 821.52,-172.61 -15.57,221.7 74.04,178.35 169.89,306.33 82.65,110.34 61.22,250.56 -40.64,312.41 -212.41,128.97 -663.29,1.35 -854.24,-60.91l1.8 -199.55c130.3,-79.57 145.3,-6.64 190.36,-157.05 -121.32,-60.27 -40.57,-13.79 -157.06,-13.73 -108.22,0.04 -2.64,43.65 -131.62,-14.89zm216.52 -2896.89c-48.49,-212.72 -116.44,-879.16 -89.13,-1103.95 157.67,-14.45 515.03,378.39 549.75,429.05 87.51,127.71 357.4,498.93 394.55,655.91 -605.13,126.73 -778.53,355.16 -855.17,18.99zm1165.27 -629.2c-259.1,4.28 -661.02,-218.51 -778.05,-352.87 216.41,20.45 659.49,149.66 778.05,352.87zm-2997.84 -108.99c92.1,-79.54 502.54,-234.63 656.53,-259.04 608.94,-96.51 514.47,-131.15 764.49,-174.47 -88.6,277.09 -598.18,813.16 -743.93,1037.17 -265.63,11.99 -266.41,-60.6 -387.76,-262.74 -167.78,-279.52 -216.53,-204.87 -289.33,-340.92zm80.85 -528.42c134.87,-120.91 818.33,-64.83 960.55,35.22 -203.9,146.31 -763.77,102.99 -960.55,-35.22zm1473.96 -637.94c478.02,-238.3 679.47,494.35 279.32,642.29 -400.73,148.14 -723.9,-420.66 -279.32,-642.29zm587.75 74.29c395.98,-383.33 1582.96,-497.06 1283.88,185.93 -174.83,399.25 -261.18,257.06 -359.96,307.27 5.7,245.77 205.76,198.23 133.87,633.89 -127.33,-27.27 -15.95,16.85 -131.6,-75.01 -438.18,-348.07 -702.55,-250.2 -1028.15,-417.97 174.98,-474.72 305.12,-161.36 520.56,-317.05 -29.57,-162.95 -96.64,-103.36 -242.41,-124.98 -193.98,-28.75 -124.42,-4.86 -176.2,-192.08zm-5625.78 2420.3c-116.04,-373.97 189.29,-1164.73 350.74,-1422.33 242.03,-386.16 239.71,-356.38 91.74,-393.61 -150.96,-37.98 -81.85,35.78 -157.2,-56.08 -106.79,-130.18 -56.54,-626.19 -8.02,-781.29 334.55,-1069.4 1276.64,60.46 1877.9,-61.39 509.16,-103.18 850.81,-77.3 1360.53,-71.38 11.56,318.14 -311.34,333.58 -332.05,684.49 -21.22,359.43 325.84,361.51 499.33,486.94 -169.61,100.23 -438.19,121.14 -528.87,251.19 49.23,150.2 143.71,130.01 270.24,229.97 314.76,248.67 377.74,738.76 773.67,563.63 200.4,-88.65 631,-863.99 853.2,-999.81 37.88,843.17 22.51,1619.84 778.25,1214.59 234.83,-125.93 307.37,-52.29 471.39,-60.53 398.51,-20.04 -120.89,-409.06 -209.13,-723.37 222.91,70.21 458.43,64.38 536.59,253.58 67.21,162.72 142.07,472.98 122.26,649.22 -180.83,95.36 -442.5,54.45 -469.42,233.56 136.96,62.32 310.77,-2.05 478.96,12.79 18.86,205.1 8.59,326.76 -44.65,511.4l-278.88 40.22c44.16,206.22 48.72,59.74 209.47,188.41 -52.48,599.53 -409.36,448.22 -513.23,468.15 10.2,211.26 57.88,45.58 140.93,236.41 -66.48,115.38 -145.79,188.76 -256.22,247.76 -135.48,-84.18 -215.58,-194.82 -460.29,-114.72 -459.25,150.33 -476.13,493.2 -688.77,587.59 -563.97,250.38 -531.27,28.4 -666.1,-69.02 -64.77,-46.8 -174.46,-66.34 -245.41,-109.77 -143.31,-87.71 -113.28,-251.93 -354.51,-310.77 -557.42,-135.95 -437.18,400.88 -807.65,538.19 -201.94,74.85 -961.34,-126.95 -1170.66,-187.95 -270.33,-78.79 -775.93,-263.05 -873.5,-475.63 125.15,-138.71 152.82,-43.24 185.94,-215.11 -199.3,-89.82 -191.18,59.81 -457.77,31.96 -97.9,-120.46 -198.37,-207.4 -222.7,-429.6 162.84,-46.36 233.71,-19.43 251.99,-162.26 -196.85,-87.84 -291.24,93.82 -412.5,-107.91 -59.71,-99.32 -81.62,-317.06 -60.91,-442.05 139.29,-18.75 317.14,22.41 431.74,-48.92 -43.26,-196.78 -266.76,-84.88 -466.44,-186.56zm4747.89 -2465.41c-107.86,-50.82 -132.04,-85.05 -268.56,-84.68 -19.7,199.1 50.88,142.85 211.35,255.22l29.89 340.4c-249.79,-22.64 -457.74,-77.2 -715.71,-98.2 -337.93,-27.52 -349.14,30.19 -526.72,57.2 -95.64,14.55 6.66,6.52 -66.09,0.43 -104.3,-8.74 -84.51,-216.08 98.99,-392.93 214.41,-206.65 269.41,-33.18 327.05,-243.69 -77.83,-107.63 -10.68,-31.98 -155.33,-87.94 -57.39,-1602.97 1219.32,-291.08 1284.72,97.74 -115.84,63.59 -131.28,98.32 -219.6,156.45zm266.35 -483.3c193.13,-145.18 498.48,-244.59 771.83,-308.46 408.93,-95.58 545.47,-75.69 573.24,375.75 -406.44,134.29 -124.14,-31.97 -732.64,251.46 -118.15,55.03 -499.74,40.51 -612.42,-318.74zm452.24 8337.29c100.31,-107.73 82.78,-154.06 163.11,-279.24 265.82,72.01 507.88,42.49 529.25,-239.88 27.25,-360.04 -815.43,-963.29 -942.41,-1572.23 70.27,104.16 160.73,248.54 232.46,345.61 314.68,425.89 604.47,-257.08 617.31,-272.16 91.02,-106.97 219.42,-123.17 291.79,-260.2 -92.76,-132.82 -164.7,-92.44 -301.63,-176.15 99.8,-117.73 293.66,-180.63 209.08,-449.15 -78.16,-248.14 -234.56,-115.84 -178.66,-502 91.99,-91.85 155.7,-112.49 251.59,-207.72 104.47,-103.75 109.3,-148.54 243.47,-226.27 286.99,-8.29 540.71,270.64 741.24,187.39 5.5,-175.97 -98.84,-187.87 -268.27,-262.01 -120.72,-52.82 -229.16,-112.27 -318.91,-171.85 7.84,-187.46 119.92,-418.04 233.88,-519.51 245.9,-30.88 434.56,67.2 631.45,0.99 -109.53,-394.48 -834.65,201.22 -558.31,-801.57 226.06,-30.43 608.84,54.84 766.58,-77.89 -86.24,-207.9 -439.96,-139.04 -772.7,-144.65 -99.06,-204.74 -123.72,-510.54 -193.82,-752.09 -62.39,-214.94 0.2,-181.52 20.31,-373.24 16.75,-159.63 -47.97,-294.52 -28.77,-414.65 34.77,-217.56 780.95,-848.45 -204.33,-1112.86 -83.52,-487.17 -173.8,-744.44 -743.39,-644.96 -459.51,80.26 -660.92,222.49 -1033.09,342.38 -209.06,-97.28 -396.02,-393.23 -748.07,-446.44 -432.39,-65.36 -522.67,219.02 -601.27,580.04 -329.69,-4.37 -640.95,-17.06 -971.24,16.46 -413.62,41.99 -394.94,155.97 -779.29,-13.27 -405.33,-178.47 -1209.69,-511.42 -1509.76,-90.98 -483.57,677.56 -163.59,1355.9 -147.73,1613.54 8.39,136.33 -212.9,508.99 -268.18,720.92 -85.83,329.04 -82.59,662.62 -116.44,763.99 -78.45,234.94 -701.25,-22.71 -746.18,308.09 183.54,105.81 509.31,-37.39 739.03,3.59 96.84,104.09 159.68,427.55 147.85,592.96 -282.46,82.45 -425.31,86.14 -465.16,248.92 207.91,135.48 361.76,-119.12 575.49,-15.22 92.1,44.77 249.94,321.03 271.07,437.94 -158.25,220.04 -547.65,234.47 -566.28,537 221.27,8.49 375.62,-174.13 549.69,-271.99 379.57,-213.39 518.65,359.22 1735.9,588.66 -28.1,332.16 42.82,224.55 108.18,423.16 -109.26,187.92 -171.03,374.19 -452.12,379.66 -257.73,5.01 -535.04,-129.88 -728.2,47.04 -144.04,131.94 -64.08,69.05 -263.78,158.25 -334.31,149.32 -403.37,521.86 -374.79,887.36 80.26,1026.18 719.57,1078.36 1403.31,1113.34 197.14,10.08 223.7,52.43 360.88,74.97 168.97,27.78 199.05,-37.23 378.32,-40.43 90.55,105.59 125.2,221.89 318.4,226.01 168.98,3.59 264.26,-106.45 343.54,-168.35 165.43,310.78 416.76,285.28 642.97,34.72 127.31,73.58 139.66,197.26 376.43,157.22 197.38,-33.39 215.88,-157.71 293.66,-240.46 428.87,345.56 583.67,-56.61 634.82,-101.94l216.83 149.79 254.89 -90.63z"/>
   </g>
   <path class="fil2" d="M2804.75 8291.3c261.78,346.45 571.57,529.15 1155.99,605.31 479.04,62.42 1221.79,0.19 1652.68,-83.16 806.14,-155.93 699.43,-216.96 1261.93,-466.32 -77.56,-174.48 -405.61,-493.95 -628.45,-888.73 -195.85,-346.97 -384.12,-950.4 -495,-1042.22l-425.82 71.15c37.82,366.78 270.22,612.42 51.48,1031.91 -184.98,354.75 -1015.39,708.6 -1494.79,-302.8 -319.46,-673.96 -42.75,-736.64 -569.17,-700.16 -138.5,184.24 -168.75,343.01 -325.28,449.94 -239.46,163.59 -440.09,38.63 -679.72,91.36 7.2,369.8 311.78,989.72 496.16,1233.73z"/>
   <path class="fil0" d="M4787.82 5847.48c-50.5,-167.1 -63.14,-159.64 -154.86,-284.52 -455.02,-62.19 -214.18,151.48 -479.64,346.04 -198,145.14 -281.53,245.98 -270.34,570.15 15.48,448.2 292.77,929.79 551.04,1099.71 432.22,284.38 902.31,-70.82 780.11,-673.72 -38.09,-187.94 -213.38,-476.64 -135.36,-632.44 150.9,-301.38 65.79,-394.75 -290.95,-425.23z"/>
   <path class="fil2" d="M4717.22 931.58c144.65,55.96 77.5,-19.69 155.33,87.94 -57.65,210.51 -112.64,37.04 -327.05,243.69 -183.5,176.85 -203.29,384.19 -98.99,392.93 72.75,6.09 -29.54,14.12 66.09,-0.43 177.58,-27.01 188.8,-84.71 526.72,-57.2 257.96,21.01 465.92,75.56 715.71,98.2l-29.89 -340.4c-160.47,-112.37 -231.05,-56.12 -211.35,-255.22 136.52,-0.37 160.7,33.87 268.56,84.68 88.32,-58.13 103.75,-92.86 219.6,-156.45 -65.4,-388.82 -1342.11,-1700.71 -1284.72,-97.74z"/>
   <path class="fil2" d="M6660.24 1230.88c51.78,187.22 -17.78,163.33 176.2,192.08 145.77,21.62 212.84,-37.97 242.41,124.98 -215.44,155.69 -345.58,-157.67 -520.56,317.05 325.61,167.77 589.97,69.9 1028.15,417.97 115.64,91.86 4.27,47.74 131.6,75.01 71.88,-435.66 -128.17,-388.12 -133.87,-633.89 98.78,-50.21 185.13,91.98 359.96,-307.27 299.08,-682.99 -887.9,-569.26 -1283.88,-185.93z"/>
   <path class="fil0" d="M2390.17 8100.31c-127.81,-83.83 -265.13,-61.71 -330.52,-230.41 -55.4,-142.91 -20.12,-225.4 48.63,-339.46 43.35,-71.91 5.34,3.66 40.31,-64.23l-351.52 -225.06c-482.06,250.1 -388.08,1320.98 326.88,1487.41 147.27,34.28 520.91,102.51 656.57,41.95l22.9 -129.52c-468.8,5.08 -571.59,-143.3 -413.25,-540.68z"/>
   <path class="fil2" d="M6133.73 5958.03c128.98,58.54 23.4,14.93 131.62,14.89 116.48,-0.06 35.73,-46.55 157.06,13.73 -45.07,150.41 -60.06,77.48 -190.36,157.05l-1.8 199.55c190.95,62.26 641.84,189.88 854.24,60.91 101.87,-61.85 123.29,-202.06 40.64,-312.41 -95.85,-127.97 -185.46,-84.62 -169.89,-306.33 67.28,-957.52 -931.04,-121.82 -821.52,172.61z"/>
   <path class="fil2" d="M7205.42 3042.15c-37.15,-156.99 -307.05,-528.2 -394.55,-655.91 -34.71,-50.66 -392.08,-443.5 -549.75,-429.05 -27.32,224.79 40.63,891.24 89.13,1103.95 76.65,336.17 250.05,107.74 855.17,-18.99z"/>
   <path class="fil2" d="M4517.68 2322.95c72.8,136.05 121.55,61.4 289.33,340.92 121.34,202.13 122.12,274.73 387.76,262.74 145.76,-224.01 655.34,-760.08 743.93,-1037.17 -250.02,43.32 -155.55,77.95 -764.49,174.47 -153.99,24.41 -564.43,179.5 -656.53,259.04z"/>
   <path class="fil0" d="M6048.69 702.47c112.69,359.25 494.27,373.77 612.42,318.74 608.5,-283.42 326.2,-117.16 732.64,-251.46 -27.77,-451.43 -164.31,-471.32 -573.24,-375.75 -273.35,63.88 -578.7,163.29 -771.83,308.46z"/>
   <path class="fil2" d="M6072.48 1156.59c-444.58,221.62 -121.41,790.43 279.32,642.29 400.15,-147.93 198.7,-880.58 -279.32,-642.29z"/>
   <path class="fil2" d="M6664.04 7282.85c224.95,-31.36 170.93,-154.05 364.46,-368.94 89.05,-98.87 63.92,-9.8 98.9,-156.56 -296.93,-94.87 -615.72,-239.16 -962.21,-283.24 58.36,179.36 370.93,703.8 498.85,808.74z"/>
   <path class="fil1" d="M4192.89 4683.21c94.14,-237.2 492.2,-228.99 448.28,95.13 -204.01,80.37 -362.18,97.93 -448.28,-95.13zm-168.49 35.22c42.66,353.57 912.63,386.32 807.59,-98.31 -80.89,-373.23 -859.17,-329.14 -807.59,98.31z"/>
   <path class="fil1" d="M2323.77 4225.25c80.09,354.35 624.46,251.17 494.36,-271.17 -99.77,-400.56 -600.91,-200.15 -494.36,271.17z"/>
   <path class="fil1" d="M5934.47 4225.25c95.86,372.01 581.83,256.94 487.63,-244.1 -72.98,-388.12 -616.77,-257.07 -487.63,244.1z"/>
   <path class="fil2" d="M4598.53 1794.53c196.78,138.22 756.65,181.54 960.55,35.22 -142.22,-100.05 -825.68,-156.13 -960.55,-35.22z"/>
   <path class="fil2" d="M3166.9 6092.32c-70.13,252.46 266.79,275.72 486.61,270.1l41.69 -244.61 -528.3 -25.49z"/>
   <path class="fil2" d="M5923.41 6397.03c150.53,-11.65 208.5,-42.89 180.2,-231.3 -20.36,-135.5 -87.13,-191.46 -215.46,-207.7 -166.86,131.43 -126.05,332.91 35.26,438.99z"/>
   <path class="fil3" d="M4192.89 4683.21c86.1,193.06 244.27,175.5 448.28,95.13 43.92,-324.12 -354.14,-332.33 -448.28,-95.13z"/>
   <path class="fil2" d="M7515.52 2431.95c-118.56,-203.21 -561.64,-332.42 -778.05,-352.87 117.03,134.36 518.94,357.16 778.05,352.87z"/>
   <path class="fil2" d="M5335.62 6296.08c351.63,27.89 304.55,-65.43 323.92,-98.08 -118.19,-75.01 -281.11,-69.9 -323.92,98.08z"/>
  </g>
 </g>
</svg>
